<svg width="505" height="222" viewBox="0 0 505 222" fill="none" xmlns="http://www.w3.org/2000/svg">
<g clip-path="url(#clip0_38_8)">
<path d="M8.58 102.3C7.12 102.3 5.82 101.96 4.68 101.28C3.56 100.58 2.68 99.64 2.04 98.46C1.4 97.26 1.08 95.91 1.08 94.41C1.08 92.81 1.43 91.39 2.13 90.15C2.85 88.89 3.83 87.9 5.07 87.18C6.31 86.46 7.71 86.1 9.27 86.1C10.31 86.1 11.21 86.24 11.97 86.52C12.75 86.8 13.35 87.14 13.77 87.54C14.21 87.94 14.43 88.32 14.43 88.68C14.43 89 14.27 89.27 13.95 89.49C13.63 89.69 13.28 89.81 12.9 89.85C12.52 89.89 12.23 89.83 12.03 89.67L10.11 87.96C9.85 87.72 9.59 87.56 9.33 87.48C9.07 87.38 8.74 87.33 8.34 87.33C7.42 87.33 6.62 87.6 5.94 88.14C5.26 88.68 4.73 89.41 4.35 90.33C3.99 91.23 3.81 92.24 3.81 93.36C3.81 94.68 4.06 95.85 4.56 96.87C5.08 97.89 5.79 98.7 6.69 99.3C7.61 99.88 8.65 100.17 9.81 100.17C10.51 100.17 11.2 100.05 11.88 99.81C12.56 99.57 13.27 99.17 14.01 98.61L14.61 99.18C13.67 100.28 12.71 101.08 11.73 101.58C10.75 102.06 9.7 102.3 8.58 102.3ZM15.713 102V101.1L16.613 100.95C17.213 100.85 17.613 100.69 17.813 100.47C18.013 100.23 18.113 99.8 18.113 99.18V82.02C18.113 81.38 17.973 80.93 17.693 80.67C17.413 80.39 16.773 80.19 15.773 80.07V79.32L20.393 78H20.813V99.18C20.813 99.8 20.913 100.23 21.113 100.47C21.313 100.69 21.713 100.85 22.313 100.95L23.213 101.1V102H15.713ZM28.3226 102.3C27.4226 102.3 26.7126 102.16 26.1926 101.88C25.6926 101.58 25.3326 101.21 25.1126 100.77C24.9126 100.31 24.8126 99.85 24.8126 99.39C24.8126 98.71 25.0526 98.03 25.5326 97.35C26.0326 96.65 26.8426 95.95 27.9626 95.25C29.1026 94.55 30.6326 93.86 32.5526 93.18L33.3026 92.91L33.3926 89.94C33.4126 89.2 33.1826 88.59 32.7026 88.11C32.2226 87.61 31.5526 87.36 30.6926 87.36C30.0126 87.36 29.4126 87.59 28.8926 88.05C28.3726 88.51 28.0026 89.23 27.7826 90.21C27.7426 90.41 27.5326 90.6 27.1526 90.78C26.7926 90.94 26.3126 91.02 25.7126 91.02C25.3726 91.02 25.1126 90.98 24.9326 90.9C24.7526 90.82 24.7026 90.64 24.7826 90.36C25.1026 89.58 25.6326 88.87 26.3726 88.23C27.1126 87.59 27.9526 87.08 28.8926 86.7C29.8326 86.3 30.7626 86.1 31.6826 86.1C32.9826 86.1 34.0426 86.41 34.8626 87.03C35.7026 87.65 36.1026 88.52 36.0626 89.64L35.7626 98.79C35.7426 99.57 35.9326 100.07 36.3326 100.29C36.7526 100.51 37.5426 100.66 38.7026 100.74V101.43L37.6526 101.7C37.0126 101.9 36.5026 102.03 36.1226 102.09C35.7626 102.17 35.4826 102.21 35.2826 102.21C34.7426 102.21 34.3326 102.09 34.0526 101.85C33.7926 101.61 33.6026 101.33 33.4826 101.01C33.3826 100.69 33.3126 100.43 33.2726 100.23H33.0326C32.1726 101.07 31.3626 101.63 30.6026 101.91C29.8626 102.17 29.1026 102.3 28.3226 102.3ZM30.0326 100.32C30.7526 100.32 31.3426 100.21 31.8026 99.99C32.2826 99.75 32.7126 99.5 33.0926 99.24L33.2726 93.93L33.0326 94.02C31.5926 94.56 30.4926 95.09 29.7326 95.61C28.9726 96.13 28.4526 96.63 28.1726 97.11C27.9126 97.59 27.7826 98.03 27.7826 98.43C27.7826 99.69 28.5326 100.32 30.0326 100.32ZM44.7005 102.3C43.9405 102.3 43.1305 102.21 42.2705 102.03C41.4305 101.85 40.7405 101.61 40.2005 101.31V97.26H41.0705C41.2905 98.66 41.7705 99.67 42.5105 100.29C43.2705 100.89 44.1305 101.19 45.0905 101.19C46.0105 101.19 46.7305 100.95 47.2505 100.47C47.7705 99.99 48.0305 99.36 48.0305 98.58C48.0305 97.88 47.8205 97.34 47.4005 96.96C47.0005 96.56 46.4505 96.18 45.7505 95.82L43.5905 94.68C42.3105 94 41.4605 93.32 41.0405 92.64C40.6205 91.96 40.4105 91.28 40.4105 90.6C40.4105 89.7 40.6505 88.92 41.1305 88.26C41.6305 87.58 42.3105 87.05 43.1705 86.67C44.0305 86.29 45.0105 86.1 46.1105 86.1C46.8505 86.1 47.5405 86.18 48.1805 86.34C48.8405 86.5 49.4305 86.7 49.9505 86.94V90.42H49.0805C48.9605 89.84 48.7605 89.31 48.4805 88.83C48.2005 88.35 47.8205 87.96 47.3405 87.66C46.8805 87.36 46.2905 87.21 45.5705 87.21C44.6705 87.21 43.9805 87.44 43.5005 87.9C43.0205 88.36 42.7805 88.93 42.7805 89.61C42.7805 90.17 42.9505 90.66 43.2905 91.08C43.6505 91.5 44.2305 91.92 45.0305 92.34L47.0105 93.36C48.1305 93.92 48.9705 94.5 49.5305 95.1C50.1105 95.7 50.4005 96.5 50.4005 97.5C50.4005 98.54 50.1305 99.42 49.5905 100.14C49.0505 100.84 48.3405 101.38 47.4605 101.76C46.6005 102.12 45.6805 102.3 44.7005 102.3ZM57.6204 102.3C56.8604 102.3 56.0504 102.21 55.1904 102.03C54.3504 101.85 53.6604 101.61 53.1204 101.31V97.26H53.9904C54.2104 98.66 54.6904 99.67 55.4304 100.29C56.1904 100.89 57.0504 101.19 58.0104 101.19C58.9304 101.19 59.6504 100.95 60.1704 100.47C60.6904 99.99 60.9504 99.36 60.9504 98.58C60.9504 97.88 60.7404 97.34 60.3204 96.96C59.9204 96.56 59.3704 96.18 58.6704 95.82L56.5104 94.68C55.2304 94 54.3804 93.32 53.9604 92.64C53.5404 91.96 53.3304 91.28 53.3304 90.6C53.3304 89.7 53.5704 88.92 54.0504 88.26C54.5504 87.58 55.2304 87.05 56.0904 86.67C56.9504 86.29 57.9304 86.1 59.0304 86.1C59.7704 86.1 60.4604 86.18 61.1004 86.34C61.7604 86.5 62.3504 86.7 62.8704 86.94V90.42H62.0004C61.8804 89.84 61.6804 89.31 61.4004 88.83C61.1204 88.35 60.7404 87.96 60.2604 87.66C59.8004 87.36 59.2104 87.21 58.4904 87.21C57.5904 87.21 56.9004 87.44 56.4204 87.9C55.9404 88.36 55.7004 88.93 55.7004 89.61C55.7004 90.17 55.8704 90.66 56.2104 91.08C56.5704 91.5 57.1504 91.92 57.9504 92.34L59.9304 93.36C61.0504 93.92 61.8904 94.5 62.4504 95.1C63.0304 95.7 63.3204 96.5 63.3204 97.5C63.3204 98.54 63.0504 99.42 62.5104 100.14C61.9704 100.84 61.2604 101.38 60.3804 101.76C59.5204 102.12 58.6004 102.3 57.6204 102.3Z" fill="#3755CA"/>
<path d="M41.07 213.3C39.71 213.3 38.5 212.97 37.44 212.31C36.38 211.65 35.55 210.74 34.95 209.58C34.37 208.42 34.08 207.1 34.08 205.62C34.08 203.98 34.43 202.52 35.13 201.24C35.85 199.96 36.82 198.95 38.04 198.21C39.26 197.47 40.63 197.1 42.15 197.1C42.85 197.1 43.55 197.18 44.25 197.34C44.95 197.5 45.62 197.79 46.26 198.21V193.02C46.26 192.38 46.12 191.93 45.84 191.67C45.56 191.39 44.92 191.19 43.92 191.07V190.32L48.54 189H48.96V209.22C48.96 209.84 49.1 210.29 49.38 210.57C49.66 210.85 50.32 211.05 51.36 211.17V211.98L46.77 213.06H46.35V210.99H46.08C45.52 211.59 44.95 212.06 44.37 212.4C43.81 212.74 43.25 212.97 42.69 213.09C42.15 213.23 41.61 213.3 41.07 213.3ZM42.48 211.35C43.1 211.35 43.73 211.24 44.37 211.02C45.01 210.78 45.64 210.34 46.26 209.7V202.74C46.26 201.68 46.05 200.82 45.63 200.16C45.21 199.5 44.67 199.02 44.01 198.72C43.37 198.4 42.68 198.24 41.94 198.24C40.3 198.24 39.05 198.76 38.19 199.8C37.33 200.84 36.9 202.34 36.9 204.3C36.9 205.72 37.13 206.96 37.59 208.02C38.05 209.08 38.7 209.9 39.54 210.48C40.38 211.06 41.36 211.35 42.48 211.35ZM60.24 213.3C58.76 213.3 57.46 212.96 56.34 212.28C55.22 211.58 54.35 210.64 53.73 209.46C53.13 208.28 52.83 206.95 52.83 205.47C52.83 203.85 53.18 202.41 53.88 201.15C54.6 199.89 55.56 198.9 56.76 198.18C57.96 197.46 59.28 197.1 60.72 197.1C62.3 197.1 63.57 197.55 64.53 198.45C65.49 199.35 65.97 200.66 65.97 202.38C65.97 202.5 65.97 202.63 65.97 202.77C65.97 202.89 65.95 203.06 65.91 203.28L65.85 203.7H55.08V202.56H63C63.06 202.16 63.09 201.79 63.09 201.45C63.09 200.45 62.83 199.67 62.31 199.11C61.79 198.55 61.04 198.27 60.06 198.27C58.72 198.27 57.63 198.8 56.79 199.86C55.97 200.92 55.56 202.34 55.56 204.12C55.56 205.46 55.8 206.67 56.28 207.75C56.78 208.81 57.48 209.65 58.38 210.27C59.3 210.87 60.38 211.17 61.62 211.17C62.32 211.17 63 211.05 63.66 210.81C64.32 210.57 65.02 210.17 65.76 209.61L66.36 210.18C65.4 211.28 64.43 212.08 63.45 212.58C62.47 213.06 61.4 213.3 60.24 213.3ZM68.088 213V212.1L68.988 211.95C69.608 211.85 70.008 211.69 70.188 211.47C70.388 211.23 70.488 210.8 70.488 210.18V199.2H67.818V198.75L68.598 197.4H70.488V196.92C70.488 195.84 70.708 194.82 71.148 193.86C71.608 192.88 72.218 192.02 72.978 191.28C73.758 190.52 74.618 189.93 75.558 189.51C76.518 189.09 77.498 188.88 78.498 188.88C79.278 188.88 79.978 189.03 80.598 189.33C81.238 189.63 81.558 190.03 81.558 190.53C81.558 190.87 81.378 191.17 81.018 191.43C80.678 191.69 80.308 191.72 79.908 191.52L77.598 190.44C77.358 190.34 77.128 190.29 76.908 190.29C76.408 190.29 75.868 190.53 75.288 191.01C74.708 191.47 74.208 192.12 73.788 192.96C73.388 193.78 73.188 194.73 73.188 195.81V197.4H78.288V197.85L77.508 199.2H73.188V209.88C73.188 210.56 73.308 211.05 73.548 211.35C73.788 211.65 74.218 211.84 74.838 211.92L76.188 212.1V213H68.088Z" fill="#3755CA"/>
<path d="M92.2873 213V212.1L93.1873 211.95C93.8073 211.85 94.2073 211.69 94.3873 211.47C94.5873 211.23 94.6873 210.8 94.6873 210.18V199.2H92.0173V198.75L92.7973 197.4H94.6873V196.92C94.6873 195.84 94.9073 194.82 95.3473 193.86C95.8073 192.88 96.4173 192.02 97.1773 191.28C97.9573 190.52 98.8173 189.93 99.7573 189.51C100.717 189.09 101.697 188.88 102.697 188.88C103.477 188.88 104.177 189.03 104.797 189.33C105.437 189.63 105.757 190.03 105.757 190.53C105.757 190.87 105.577 191.17 105.217 191.43C104.877 191.69 104.507 191.72 104.107 191.52L101.797 190.44C101.557 190.34 101.327 190.29 101.107 190.29C100.607 190.29 100.067 190.53 99.4873 191.01C98.9073 191.47 98.4073 192.12 97.9873 192.96C97.5873 193.78 97.3873 194.73 97.3873 195.81V197.4H102.487V197.85L101.707 199.2H97.3873V209.88C97.3873 210.56 97.5073 211.05 97.7473 211.35C97.9873 211.65 98.4173 211.84 99.0373 211.92L100.387 212.1V213H92.2873ZM109.633 213.3C108.233 213.3 107.123 212.94 106.303 212.22C105.503 211.5 105.103 210.5 105.103 209.22V200.4C105.103 199.74 104.953 199.28 104.653 199.02C104.353 198.76 103.773 198.59 102.913 198.51V197.76L107.293 197.16H107.803V208.32C107.803 209.06 107.923 209.66 108.163 210.12C108.423 210.58 108.813 210.93 109.333 211.17C109.873 211.39 110.543 211.5 111.343 211.5C112.103 211.5 112.783 211.36 113.383 211.08C113.983 210.8 114.573 210.33 115.153 209.67V200.4C115.153 199.74 114.993 199.28 114.673 199.02C114.373 198.76 113.753 198.59 112.813 198.51V197.76L117.343 197.16H117.853V209.22C117.853 209.9 118.003 210.37 118.303 210.63C118.623 210.87 119.273 211.05 120.253 211.17V211.98L115.663 213.06H115.243V210.99H115.063C114.103 211.83 113.213 212.43 112.393 212.79C111.593 213.13 110.673 213.3 109.633 213.3ZM121.375 213V212.1L122.275 211.95C122.875 211.85 123.275 211.69 123.475 211.47C123.675 211.23 123.775 210.8 123.775 210.18V201.24C123.775 200.6 123.635 200.15 123.355 199.89C123.075 199.61 122.435 199.41 121.435 199.29V198.54L125.965 197.22H126.385V199.41H126.565C127.525 198.57 128.415 197.98 129.235 197.64C130.055 197.28 131.015 197.1 132.115 197.1C133.535 197.1 134.645 197.46 135.445 198.18C136.265 198.88 136.675 199.88 136.675 201.18V210.18C136.675 210.8 136.775 211.23 136.975 211.47C137.175 211.69 137.575 211.85 138.175 211.95L139.075 212.1V213H131.575V212.1L132.475 211.95C133.075 211.85 133.475 211.69 133.675 211.47C133.875 211.23 133.975 210.8 133.975 210.18V202.08C133.975 201.34 133.845 200.74 133.585 200.28C133.325 199.82 132.935 199.48 132.415 199.26C131.915 199.02 131.265 198.9 130.465 198.9C129.685 198.9 128.985 199.04 128.365 199.32C127.745 199.58 127.115 200 126.475 200.58V210.18C126.475 210.8 126.575 211.23 126.775 211.47C126.975 211.69 127.375 211.85 127.975 211.95L128.875 212.1V213H121.375ZM148.016 213.3C146.556 213.3 145.256 212.96 144.116 212.28C142.996 211.58 142.116 210.64 141.476 209.46C140.836 208.26 140.516 206.91 140.516 205.41C140.516 203.81 140.866 202.39 141.566 201.15C142.286 199.89 143.266 198.9 144.506 198.18C145.746 197.46 147.146 197.1 148.706 197.1C149.746 197.1 150.646 197.24 151.406 197.52C152.186 197.8 152.786 198.14 153.206 198.54C153.646 198.94 153.866 199.32 153.866 199.68C153.866 200 153.706 200.27 153.386 200.49C153.066 200.69 152.716 200.81 152.336 200.85C151.956 200.89 151.666 200.83 151.466 200.67L149.546 198.96C149.286 198.72 149.026 198.56 148.766 198.48C148.506 198.38 148.176 198.33 147.776 198.33C146.856 198.33 146.056 198.6 145.376 199.14C144.696 199.68 144.166 200.41 143.786 201.33C143.426 202.23 143.246 203.24 143.246 204.36C143.246 205.68 143.496 206.85 143.996 207.87C144.516 208.89 145.226 209.7 146.126 210.3C147.046 210.88 148.086 211.17 149.246 211.17C149.946 211.17 150.636 211.05 151.316 210.81C151.996 210.57 152.706 210.17 153.446 209.61L154.046 210.18C153.106 211.28 152.146 212.08 151.166 212.58C150.186 213.06 149.136 213.3 148.016 213.3ZM161.359 213.3C160.119 213.3 159.129 212.98 158.389 212.34C157.649 211.7 157.279 210.66 157.279 209.22V199.2H155.389V198.3C156.949 197.44 158.189 196.3 159.109 194.88H160.009V197.34V198.21V208.41C160.009 209.19 160.139 209.78 160.399 210.18C160.659 210.58 161.009 210.85 161.449 210.99C161.909 211.11 162.399 211.17 162.919 211.17C163.599 211.17 164.189 211.07 164.689 210.87C165.189 210.67 165.659 210.44 166.099 210.18L166.639 210.81C166.019 211.45 165.269 212.03 164.389 212.55C163.509 213.05 162.499 213.3 161.359 213.3ZM158.689 199.2V197.4H166.279V197.85L165.499 199.2H158.689ZM167.107 213V212.1L168.007 211.95C168.607 211.85 169.007 211.69 169.207 211.47C169.407 211.23 169.507 210.8 169.507 210.18V201.24C169.507 200.6 169.367 200.15 169.087 199.89C168.807 199.61 168.167 199.41 167.167 199.29V198.54L171.787 197.22H172.207V210.18C172.207 210.8 172.307 211.23 172.507 211.47C172.707 211.69 173.107 211.85 173.707 211.95L174.607 212.1V213H167.107ZM170.557 194.91C170.057 194.91 169.637 194.75 169.297 194.43C168.957 194.09 168.787 193.66 168.787 193.14C168.787 192.62 168.957 192.2 169.297 191.88C169.637 191.56 170.057 191.4 170.557 191.4C171.037 191.4 171.447 191.56 171.787 191.88C172.127 192.2 172.297 192.62 172.297 193.14C172.297 193.66 172.127 194.09 171.787 194.43C171.447 194.75 171.037 194.91 170.557 194.91ZM184.241 213.3C182.641 213.3 181.231 212.96 180.011 212.28C178.791 211.6 177.841 210.65 177.161 209.43C176.481 208.21 176.141 206.8 176.141 205.2C176.141 203.68 176.481 202.31 177.161 201.09C177.841 199.87 178.781 198.9 179.981 198.18C181.201 197.46 182.621 197.1 184.241 197.1C185.861 197.1 187.281 197.44 188.501 198.12C189.721 198.8 190.671 199.75 191.351 200.97C192.031 202.17 192.371 203.57 192.371 205.17C192.371 206.69 192.031 208.07 191.351 209.31C190.671 210.53 189.721 211.5 188.501 212.22C187.301 212.94 185.881 213.3 184.241 213.3ZM184.721 212.13C186.081 212.13 187.211 211.62 188.111 210.6C189.011 209.58 189.461 208.04 189.461 205.98C189.461 204.62 189.241 203.36 188.801 202.2C188.381 201.02 187.751 200.07 186.911 199.35C186.071 198.63 185.031 198.27 183.791 198.27C182.431 198.27 181.301 198.78 180.401 199.8C179.501 200.82 179.051 202.37 179.051 204.45C179.051 205.79 179.261 207.05 179.681 208.23C180.121 209.39 180.761 210.33 181.601 211.05C182.441 211.77 183.481 212.13 184.721 212.13ZM194.119 213V212.1L195.019 211.95C195.619 211.85 196.019 211.69 196.219 211.47C196.419 211.23 196.519 210.8 196.519 210.18V201.24C196.519 200.6 196.379 200.15 196.099 199.89C195.819 199.61 195.179 199.41 194.179 199.29V198.54L198.709 197.22H199.129V199.41H199.309C200.269 198.57 201.159 197.98 201.979 197.64C202.799 197.28 203.759 197.1 204.859 197.1C206.279 197.1 207.389 197.46 208.189 198.18C209.009 198.88 209.419 199.88 209.419 201.18V210.18C209.419 210.8 209.519 211.23 209.719 211.47C209.919 211.69 210.319 211.85 210.919 211.95L211.819 212.1V213H204.319V212.1L205.219 211.95C205.819 211.85 206.219 211.69 206.419 211.47C206.619 211.23 206.719 210.8 206.719 210.18V202.08C206.719 201.34 206.589 200.74 206.329 200.28C206.069 199.82 205.679 199.48 205.159 199.26C204.659 199.02 204.009 198.9 203.209 198.9C202.429 198.9 201.729 199.04 201.109 199.32C200.489 199.58 199.859 200 199.219 200.58V210.18C199.219 210.8 199.319 211.23 199.519 211.47C199.719 211.69 200.119 211.85 200.719 211.95L201.619 212.1V213H194.119ZM213.29 203.85C213.29 201.89 213.52 200.12 213.98 198.54C214.46 196.94 215.18 195.44 216.14 194.04C217.12 192.64 218.36 191.26 219.86 189.9L220.4 190.38C219.42 191.6 218.6 192.9 217.94 194.28C217.3 195.64 216.81 197.11 216.47 198.69C216.15 200.25 215.99 201.97 215.99 203.85H213.29ZM219.86 217.8C218.36 216.42 217.12 215.03 216.14 213.63C215.18 212.25 214.46 210.76 213.98 209.16C213.52 207.56 213.29 205.79 213.29 203.85H215.99C215.99 205.71 216.15 207.43 216.47 209.01C216.81 210.59 217.3 212.06 217.94 213.42C218.6 214.78 219.42 216.08 220.4 217.32L219.86 217.8Z" fill="black"/>
<path d="M435.68 213.3C434.78 213.3 434.07 213.16 433.55 212.88C433.05 212.58 432.69 212.21 432.47 211.77C432.27 211.31 432.17 210.85 432.17 210.39C432.17 209.71 432.41 209.03 432.89 208.35C433.39 207.65 434.2 206.95 435.32 206.25C436.46 205.55 437.99 204.86 439.91 204.18L440.66 203.91L440.75 200.94C440.77 200.2 440.54 199.59 440.06 199.11C439.58 198.61 438.91 198.36 438.05 198.36C437.37 198.36 436.77 198.59 436.25 199.05C435.73 199.51 435.36 200.23 435.14 201.21C435.1 201.41 434.89 201.6 434.51 201.78C434.15 201.94 433.67 202.02 433.07 202.02C432.73 202.02 432.47 201.98 432.29 201.9C432.11 201.82 432.06 201.64 432.14 201.36C432.46 200.58 432.99 199.87 433.73 199.23C434.47 198.59 435.31 198.08 436.25 197.7C437.19 197.3 438.12 197.1 439.04 197.1C440.34 197.1 441.4 197.41 442.22 198.03C443.06 198.65 443.46 199.52 443.42 200.64L443.12 209.79C443.1 210.57 443.29 211.07 443.69 211.29C444.11 211.51 444.9 211.66 446.06 211.74V212.43L445.01 212.7C444.37 212.9 443.86 213.03 443.48 213.09C443.12 213.17 442.84 213.21 442.64 213.21C442.1 213.21 441.69 213.09 441.41 212.85C441.15 212.61 440.96 212.33 440.84 212.01C440.74 211.69 440.67 211.43 440.63 211.23H440.39C439.53 212.07 438.72 212.63 437.96 212.91C437.22 213.17 436.46 213.3 435.68 213.3ZM437.39 211.32C438.11 211.32 438.7 211.21 439.16 210.99C439.64 210.75 440.07 210.5 440.45 210.24L440.63 204.93L440.39 205.02C438.95 205.56 437.85 206.09 437.09 206.61C436.33 207.13 435.81 207.63 435.53 208.11C435.27 208.59 435.14 209.03 435.14 209.43C435.14 210.69 435.89 211.32 437.39 211.32ZM446.748 213V212.1L447.648 211.95C448.268 211.85 448.668 211.69 448.848 211.47C449.048 211.23 449.148 210.8 449.148 210.18V201.24C449.148 200.56 448.988 200.1 448.668 199.86C448.368 199.6 447.748 199.41 446.808 199.29V198.54L451.338 197.22H451.758V199.62H452.028C452.528 198.9 453.138 198.31 453.858 197.85C454.598 197.39 455.438 197.16 456.378 197.16C457.098 197.16 457.638 197.31 457.998 197.61C458.378 197.91 458.568 198.3 458.568 198.78C458.568 199.1 458.438 199.39 458.178 199.65C457.938 199.91 457.648 200.09 457.308 200.19C456.968 200.27 456.638 200.22 456.318 200.04L454.878 199.2C454.638 199.06 454.348 199.08 454.008 199.26C453.668 199.44 453.328 199.68 452.988 199.98C452.668 200.26 452.398 200.54 452.178 200.82C451.958 201.08 451.848 201.23 451.848 201.27V210.18C451.848 210.8 451.948 211.23 452.148 211.47C452.348 211.69 452.748 211.84 453.348 211.92L454.848 212.1V213H446.748ZM464.755 220.71C463.055 220.71 461.685 220.37 460.645 219.69C459.625 219.01 459.115 218.13 459.115 217.05C459.115 216.63 459.225 216.15 459.445 215.61C459.685 215.09 460.145 214.49 460.825 213.81L462.475 212.16L463.615 212.34C462.935 213.12 462.405 213.76 462.025 214.26C461.665 214.78 461.485 215.32 461.485 215.88C461.485 216.78 461.915 217.46 462.775 217.92C463.655 218.4 464.855 218.64 466.375 218.64C468.055 218.64 469.365 218.32 470.305 217.68C471.265 217.04 471.745 216.2 471.745 215.16C471.745 214.5 471.525 214.02 471.085 213.72C470.645 213.42 469.845 213.23 468.685 213.15L462.895 212.73C461.975 212.65 461.225 212.42 460.645 212.04C460.085 211.64 459.805 211.13 459.805 210.51C459.805 209.99 459.985 209.56 460.345 209.22C460.705 208.88 461.165 208.45 461.725 207.93L462.655 207.03H463.945L463.045 208.05C462.765 208.37 462.575 208.61 462.475 208.77C462.395 208.91 462.355 209.06 462.355 209.22C462.355 209.48 462.455 209.69 462.655 209.85C462.875 210.01 463.225 210.11 463.705 210.15L469.435 210.63C471.995 210.83 473.275 211.98 473.275 214.08C473.275 215.32 472.885 216.44 472.105 217.44C471.345 218.44 470.325 219.23 469.045 219.81C467.765 220.41 466.335 220.71 464.755 220.71ZM465.325 207.72C464.205 207.72 463.205 207.5 462.325 207.06C461.445 206.6 460.755 205.97 460.255 205.17C459.755 204.37 459.505 203.46 459.505 202.44C459.505 201.4 459.755 200.48 460.255 199.68C460.775 198.88 461.485 198.25 462.385 197.79C463.285 197.33 464.305 197.1 465.445 197.1L466.675 197.19C468.035 197.43 469.135 198.01 469.975 198.93C470.835 199.85 471.265 200.98 471.265 202.32C471.265 203.36 471.005 204.29 470.485 205.11C469.985 205.91 469.285 206.55 468.385 207.03C467.485 207.49 466.465 207.72 465.325 207.72ZM465.625 206.55C466.585 206.55 467.325 206.23 467.845 205.59C468.365 204.93 468.625 203.99 468.625 202.77C468.625 201.85 468.485 201.06 468.205 200.4C467.925 199.72 467.525 199.2 467.005 198.84C466.485 198.46 465.865 198.27 465.145 198.27C464.185 198.27 463.445 198.6 462.925 199.26C462.405 199.9 462.145 200.83 462.145 202.05C462.145 202.97 462.285 203.77 462.565 204.45C462.845 205.11 463.245 205.63 463.765 206.01C464.305 206.37 464.925 206.55 465.625 206.55ZM465.445 197.55V197.1L472.885 195.66H473.455V197.55H465.445ZM479.825 213V212.1L481.175 211.92C481.815 211.82 482.255 211.63 482.495 211.35C482.735 211.05 482.855 210.56 482.855 209.88V206.04H473.555V205.35L484.145 191.7H485.405V204.15H488.555V204.6L487.955 206.04H485.405V210.18C485.405 210.8 485.495 211.23 485.675 211.47C485.875 211.69 486.275 211.85 486.875 211.95L487.775 212.1V213H479.825ZM482.855 205.23V194.55L483.125 194.91L475.535 205.08L474.905 204.15H483.845L482.855 205.23Z" fill="#CABE37"/>
<path d="M229.68 213.3C228.78 213.3 228.07 213.16 227.55 212.88C227.05 212.58 226.69 212.21 226.47 211.77C226.27 211.31 226.17 210.85 226.17 210.39C226.17 209.71 226.41 209.03 226.89 208.35C227.39 207.65 228.2 206.95 229.32 206.25C230.46 205.55 231.99 204.86 233.91 204.18L234.66 203.91L234.75 200.94C234.77 200.2 234.54 199.59 234.06 199.11C233.58 198.61 232.91 198.36 232.05 198.36C231.37 198.36 230.77 198.59 230.25 199.05C229.73 199.51 229.36 200.23 229.14 201.21C229.1 201.41 228.89 201.6 228.51 201.78C228.15 201.94 227.67 202.02 227.07 202.02C226.73 202.02 226.47 201.98 226.29 201.9C226.11 201.82 226.06 201.64 226.14 201.36C226.46 200.58 226.99 199.87 227.73 199.23C228.47 198.59 229.31 198.08 230.25 197.7C231.19 197.3 232.12 197.1 233.04 197.1C234.34 197.1 235.4 197.41 236.22 198.03C237.06 198.65 237.46 199.52 237.42 200.64L237.12 209.79C237.1 210.57 237.29 211.07 237.69 211.29C238.11 211.51 238.9 211.66 240.06 211.74V212.43L239.01 212.7C238.37 212.9 237.86 213.03 237.48 213.09C237.12 213.17 236.84 213.21 236.64 213.21C236.1 213.21 235.69 213.09 235.41 212.85C235.15 212.61 234.96 212.33 234.84 212.01C234.74 211.69 234.67 211.43 234.63 211.23H234.39C233.53 212.07 232.72 212.63 231.96 212.91C231.22 213.17 230.46 213.3 229.68 213.3ZM231.39 211.32C232.11 211.32 232.7 211.21 233.16 210.99C233.64 210.75 234.07 210.5 234.45 210.24L234.63 204.93L234.39 205.02C232.95 205.56 231.85 206.09 231.09 206.61C230.33 207.13 229.81 207.63 229.53 208.11C229.27 208.59 229.14 209.03 229.14 209.43C229.14 210.69 229.89 211.32 231.39 211.32ZM240.748 213V212.1L241.648 211.95C242.268 211.85 242.668 211.69 242.848 211.47C243.048 211.23 243.148 210.8 243.148 210.18V201.24C243.148 200.56 242.988 200.1 242.668 199.86C242.368 199.6 241.748 199.41 240.808 199.29V198.54L245.338 197.22H245.758V199.62H246.028C246.528 198.9 247.138 198.31 247.858 197.85C248.598 197.39 249.438 197.16 250.378 197.16C251.098 197.16 251.638 197.31 251.998 197.61C252.378 197.91 252.568 198.3 252.568 198.78C252.568 199.1 252.438 199.39 252.178 199.65C251.938 199.91 251.648 200.09 251.308 200.19C250.968 200.27 250.638 200.22 250.318 200.04L248.878 199.2C248.638 199.06 248.348 199.08 248.008 199.26C247.668 199.44 247.328 199.68 246.988 199.98C246.668 200.26 246.398 200.54 246.178 200.82C245.958 201.08 245.848 201.23 245.848 201.27V210.18C245.848 210.8 245.948 211.23 246.148 211.47C246.348 211.69 246.748 211.84 247.348 211.92L248.848 212.1V213H240.748ZM258.755 220.71C257.055 220.71 255.685 220.37 254.645 219.69C253.625 219.01 253.115 218.13 253.115 217.05C253.115 216.63 253.225 216.15 253.445 215.61C253.685 215.09 254.145 214.49 254.825 213.81L256.475 212.16L257.615 212.34C256.935 213.12 256.405 213.76 256.025 214.26C255.665 214.78 255.485 215.32 255.485 215.88C255.485 216.78 255.915 217.46 256.775 217.92C257.655 218.4 258.855 218.64 260.375 218.64C262.055 218.64 263.365 218.32 264.305 217.68C265.265 217.04 265.745 216.2 265.745 215.16C265.745 214.5 265.525 214.02 265.085 213.72C264.645 213.42 263.845 213.23 262.685 213.15L256.895 212.73C255.975 212.65 255.225 212.42 254.645 212.04C254.085 211.64 253.805 211.13 253.805 210.51C253.805 209.99 253.985 209.56 254.345 209.22C254.705 208.88 255.165 208.45 255.725 207.93L256.655 207.03H257.945L257.045 208.05C256.765 208.37 256.575 208.61 256.475 208.77C256.395 208.91 256.355 209.06 256.355 209.22C256.355 209.48 256.455 209.69 256.655 209.85C256.875 210.01 257.225 210.11 257.705 210.15L263.435 210.63C265.995 210.83 267.275 211.98 267.275 214.08C267.275 215.32 266.885 216.44 266.105 217.44C265.345 218.44 264.325 219.23 263.045 219.81C261.765 220.41 260.335 220.71 258.755 220.71ZM259.325 207.72C258.205 207.72 257.205 207.5 256.325 207.06C255.445 206.6 254.755 205.97 254.255 205.17C253.755 204.37 253.505 203.46 253.505 202.44C253.505 201.4 253.755 200.48 254.255 199.68C254.775 198.88 255.485 198.25 256.385 197.79C257.285 197.33 258.305 197.1 259.445 197.1L260.675 197.19C262.035 197.43 263.135 198.01 263.975 198.93C264.835 199.85 265.265 200.98 265.265 202.32C265.265 203.36 265.005 204.29 264.485 205.11C263.985 205.91 263.285 206.55 262.385 207.03C261.485 207.49 260.465 207.72 259.325 207.72ZM259.625 206.55C260.585 206.55 261.325 206.23 261.845 205.59C262.365 204.93 262.625 203.99 262.625 202.77C262.625 201.85 262.485 201.06 262.205 200.4C261.925 199.72 261.525 199.2 261.005 198.84C260.485 198.46 259.865 198.27 259.145 198.27C258.185 198.27 257.445 198.6 256.925 199.26C256.405 199.9 256.145 200.83 256.145 202.05C256.145 202.97 256.285 203.77 256.565 204.45C256.845 205.11 257.245 205.63 257.765 206.01C258.305 206.37 258.925 206.55 259.625 206.55ZM259.445 197.55V197.1L266.885 195.66H267.455V197.55H259.445ZM268.678 213V212.1L270.328 211.92C270.968 211.82 271.408 211.63 271.648 211.35C271.888 211.05 272.008 210.56 272.008 209.88V195.99C272.008 195.39 271.918 194.97 271.738 194.73C271.558 194.47 271.198 194.31 270.658 194.25C270.118 194.19 269.298 194.16 268.198 194.16V193.32L274.288 191.79H274.708V210.18C274.708 210.8 274.798 211.23 274.978 211.47C275.178 211.69 275.578 211.85 276.178 211.95L277.378 212.1V213H268.678Z" fill="#37CA3C"/>
<path d="M280 218.1L279.46 217.38C280.26 216.84 280.87 216.33 281.29 215.85C281.73 215.37 282.03 214.83 282.19 214.23C282.37 213.65 282.46 212.94 282.46 212.1L283.24 211.53C283.24 212.03 283.08 212.45 282.76 212.79C282.44 213.13 282.02 213.3 281.5 213.3C281 213.3 280.58 213.13 280.24 212.79C279.9 212.45 279.73 212.03 279.73 211.53C279.73 211.01 279.91 210.59 280.27 210.27C280.63 209.95 281.09 209.79 281.65 209.79C282.33 209.79 282.87 210.03 283.27 210.51C283.69 210.99 283.9 211.64 283.9 212.46C283.9 213.56 283.59 214.55 282.97 215.43C282.35 216.33 281.36 217.22 280 218.1Z" fill="black"/>
<path d="M15.27 76.25C12.43 76.25 9.94 75.73 7.8 74.69C5.68 73.65 4.02 72.16 2.82 70.22C1.64 68.28 1.05 65.96 1.05 63.26C1.05 61.38 1.39 59.62 2.07 57.98C2.77 56.34 3.75 54.9 5.01 53.66C6.29 52.42 7.8 51.45 9.54 50.75C11.28 50.05 13.21 49.7 15.33 49.7C17.79 49.7 19.91 50.15 21.69 51.05C23.49 51.95 24.88 53.22 25.86 54.86C26.84 56.48 27.33 58.4 27.33 60.62C27.33 62.78 26.94 64.57 26.16 65.99C25.38 67.39 24.36 68.44 23.1 69.14C21.84 69.84 20.49 70.19 19.05 70.19C18.35 70.19 17.83 70.08 17.49 69.86C17.15 69.64 16.92 69.39 16.8 69.11C16.68 68.81 16.6 68.57 16.56 68.39H16.35C15.55 69.15 14.81 69.65 14.13 69.89C13.47 70.13 12.8 70.25 12.12 70.25C11.32 70.25 10.69 70.13 10.23 69.89C9.77 69.63 9.44 69.3 9.24 68.9C9.06 68.5 8.96 68.1 8.94 67.7C8.92 67.08 9.11 66.45 9.51 65.81C9.93 65.15 10.65 64.5 11.67 63.86C12.69 63.2 14.09 62.57 15.87 61.97L16.59 61.73L16.68 59.12C16.72 58.44 16.52 57.88 16.08 57.44C15.64 57 15.04 56.78 14.28 56.78C13.7 56.78 13.15 56.98 12.63 57.38C12.13 57.78 11.8 58.41 11.64 59.27C11.62 59.41 11.44 59.58 11.1 59.78C10.78 59.96 10.35 60.05 9.81 60.05C9.49 60.05 9.23 60.01 9.03 59.93C8.85 59.85 8.8 59.68 8.88 59.42C9.14 58.7 9.61 58.05 10.29 57.47C10.97 56.87 11.74 56.4 12.6 56.06C13.48 55.72 14.34 55.55 15.18 55.55C16.36 55.55 17.33 55.84 18.09 56.42C18.85 56.98 19.21 57.76 19.17 58.76L18.9 67.07C18.88 67.63 18.98 68.05 19.2 68.33C19.44 68.61 19.87 68.75 20.49 68.75C21.31 68.75 22.05 68.44 22.71 67.82C23.39 67.2 23.93 66.35 24.33 65.27C24.73 64.19 24.93 62.95 24.93 61.55C24.93 59.23 24.49 57.28 23.61 55.7C22.73 54.12 21.52 52.92 19.98 52.1C18.44 51.28 16.68 50.87 14.7 50.87C13.06 50.87 11.56 51.17 10.2 51.77C8.84 52.37 7.66 53.21 6.66 54.29C5.68 55.37 4.92 56.65 4.38 58.13C3.86 59.59 3.6 61.19 3.6 62.93C3.6 65.37 4.12 67.5 5.16 69.32C6.2 71.12 7.63 72.51 9.45 73.49C11.27 74.47 13.34 74.96 15.66 74.96C17.18 74.96 18.58 74.78 19.86 74.42C21.14 74.06 22.17 73.58 22.95 72.98L23.58 73.7C22.64 74.52 21.45 75.15 20.01 75.59C18.57 76.03 16.99 76.25 15.27 76.25ZM13.68 68.36C14.32 68.36 14.85 68.26 15.27 68.06C15.69 67.84 16.07 67.62 16.41 67.4L16.56 62.78L16.29 62.87C14.93 63.33 13.91 63.8 13.23 64.28C12.57 64.74 12.14 65.19 11.94 65.63C11.74 66.07 11.65 66.48 11.67 66.86C11.71 67.4 11.89 67.79 12.21 68.03C12.55 68.25 13.04 68.36 13.68 68.36ZM28.8952 78.41V77.51L29.7952 77.36C30.4152 77.26 30.8152 77.09 30.9952 76.85C31.1952 76.63 31.2952 76.21 31.2952 75.59V59.24C31.2952 58.6 31.1552 58.15 30.8752 57.89C30.5952 57.61 29.9552 57.41 28.9552 57.29V56.54L33.4852 55.22H33.9052V57.41H34.0852C34.6452 56.87 35.1952 56.43 35.7352 56.09C36.2752 55.75 36.8252 55.5 37.3852 55.34C37.9452 55.18 38.5452 55.1 39.1852 55.1C40.5652 55.1 41.7752 55.43 42.8152 56.09C43.8752 56.73 44.6952 57.62 45.2752 58.76C45.8752 59.9 46.1752 61.23 46.1752 62.75C46.1752 64.41 45.8052 65.89 45.0652 67.19C44.3452 68.47 43.3552 69.48 42.0952 70.22C40.8352 70.94 39.4052 71.3 37.8052 71.3C37.1252 71.3 36.4652 71.22 35.8252 71.06C35.1852 70.92 34.5752 70.71 33.9952 70.43V75.29C33.9952 75.97 34.1152 76.46 34.3552 76.76C34.5952 77.06 35.0252 77.25 35.6452 77.33L36.9952 77.51V78.41H28.8952ZM38.2552 70.16C39.8552 70.16 41.1052 69.62 42.0052 68.54C42.9052 67.44 43.3552 65.9 43.3552 63.92C43.3552 62.54 43.1352 61.34 42.6952 60.32C42.2752 59.28 41.6652 58.48 40.8652 57.92C40.0652 57.34 39.1052 57.05 37.9852 57.05C37.2452 57.05 36.5352 57.18 35.8552 57.44C35.1752 57.7 34.5552 58.09 33.9952 58.61V65.51C33.9952 66.47 34.1552 67.3 34.4752 68C34.7952 68.68 35.2652 69.21 35.8852 69.59C36.5252 69.97 37.3152 70.16 38.2552 70.16ZM51.9359 71.3C51.0359 71.3 50.3259 71.16 49.8059 70.88C49.3059 70.58 48.9459 70.21 48.7259 69.77C48.5259 69.31 48.4259 68.85 48.4259 68.39C48.4259 67.71 48.6659 67.03 49.1459 66.35C49.6459 65.65 50.4559 64.95 51.5759 64.25C52.7159 63.55 54.2459 62.86 56.1659 62.18L56.9159 61.91L57.0059 58.94C57.0259 58.2 56.7959 57.59 56.3159 57.11C55.8359 56.61 55.1659 56.36 54.3059 56.36C53.6259 56.36 53.0259 56.59 52.5059 57.05C51.9859 57.51 51.6159 58.23 51.3959 59.21C51.3559 59.41 51.1459 59.6 50.7659 59.78C50.4059 59.94 49.9259 60.02 49.3259 60.02C48.9859 60.02 48.7259 59.98 48.5459 59.9C48.3659 59.82 48.3159 59.64 48.3959 59.36C48.7159 58.58 49.2459 57.87 49.9859 57.23C50.7259 56.59 51.5659 56.08 52.5059 55.7C53.4459 55.3 54.3759 55.1 55.2959 55.1C56.5959 55.1 57.6559 55.41 58.4759 56.03C59.3159 56.65 59.7159 57.52 59.6759 58.64L59.3759 67.79C59.3559 68.57 59.5459 69.07 59.9459 69.29C60.3659 69.51 61.1559 69.66 62.3159 69.74V70.43L61.2659 70.7C60.6259 70.9 60.1159 71.03 59.7359 71.09C59.3759 71.17 59.0959 71.21 58.8959 71.21C58.3559 71.21 57.9459 71.09 57.6659 70.85C57.4059 70.61 57.2159 70.33 57.0959 70.01C56.9959 69.69 56.9259 69.43 56.8859 69.23H56.6459C55.7859 70.07 54.9759 70.63 54.2159 70.91C53.4759 71.17 52.7159 71.3 51.9359 71.3ZM53.6459 69.32C54.3659 69.32 54.9559 69.21 55.4159 68.99C55.8959 68.75 56.3259 68.5 56.7059 68.24L56.8859 62.93L56.6459 63.02C55.2059 63.56 54.1059 64.09 53.3459 64.61C52.5859 65.13 52.0659 65.63 51.7859 66.11C51.5259 66.59 51.3959 67.03 51.3959 67.43C51.3959 68.69 52.1459 69.32 53.6459 69.32ZM68.9738 71.3C67.7338 71.3 66.7438 70.98 66.0038 70.34C65.2638 69.7 64.8938 68.66 64.8938 67.22V57.2H63.0038V56.3C64.5638 55.44 65.8038 54.3 66.7238 52.88H67.6238V55.34V56.21V66.41C67.6238 67.19 67.7538 67.78 68.0138 68.18C68.2738 68.58 68.6238 68.85 69.0638 68.99C69.5238 69.11 70.0138 69.17 70.5338 69.17C71.2138 69.17 71.8038 69.07 72.3038 68.87C72.8038 68.67 73.2738 68.44 73.7138 68.18L74.2538 68.81C73.6338 69.45 72.8838 70.03 72.0038 70.55C71.1238 71.05 70.1138 71.3 68.9738 71.3ZM66.3037 57.2V55.4H73.8938V55.85L73.1138 57.2H66.3037ZM82.2909 71.3C80.8309 71.3 79.5309 70.96 78.3909 70.28C77.2709 69.58 76.3909 68.64 75.7509 67.46C75.1109 66.26 74.7909 64.91 74.7909 63.41C74.7909 61.81 75.1409 60.39 75.8409 59.15C76.5609 57.89 77.5409 56.9 78.7809 56.18C80.0209 55.46 81.4209 55.1 82.9809 55.1C84.0209 55.1 84.9209 55.24 85.6809 55.52C86.4609 55.8 87.0609 56.14 87.4809 56.54C87.9209 56.94 88.1409 57.32 88.1409 57.68C88.1409 58 87.9809 58.27 87.6609 58.49C87.3409 58.69 86.9909 58.81 86.6109 58.85C86.2309 58.89 85.9409 58.83 85.7409 58.67L83.8209 56.96C83.5609 56.72 83.3009 56.56 83.0409 56.48C82.7809 56.38 82.4509 56.33 82.0509 56.33C81.1309 56.33 80.3309 56.6 79.6509 57.14C78.9709 57.68 78.4409 58.41 78.0609 59.33C77.7009 60.23 77.5209 61.24 77.5209 62.36C77.5209 63.68 77.7709 64.85 78.2709 65.87C78.7909 66.89 79.5009 67.7 80.4009 68.3C81.3209 68.88 82.3609 69.17 83.5209 69.17C84.2209 69.17 84.9109 69.05 85.5909 68.81C86.2709 68.57 86.9809 68.17 87.7209 67.61L88.3209 68.18C87.3809 69.28 86.4209 70.08 85.4409 70.58C84.4609 71.06 83.4109 71.3 82.2909 71.3ZM89.4239 71V70.1L90.3239 69.95C90.9239 69.85 91.3239 69.69 91.5239 69.47C91.7239 69.23 91.8239 68.8 91.8239 68.18V51.02C91.8239 50.38 91.6839 49.93 91.4039 49.67C91.1239 49.39 90.4839 49.19 89.4839 49.07V48.32L94.1039 47H94.5239V57.32H94.7039C95.3239 56.78 95.9039 56.35 96.4439 56.03C96.9839 55.71 97.5439 55.48 98.1239 55.34C98.7239 55.18 99.4039 55.1 100.164 55.1C101.584 55.1 102.694 55.46 103.494 56.18C104.314 56.88 104.724 57.88 104.724 59.18V68.18C104.724 68.8 104.824 69.23 105.024 69.47C105.224 69.69 105.624 69.85 106.224 69.95L107.124 70.1V71H99.6239V70.1L100.524 69.95C101.124 69.85 101.524 69.69 101.724 69.47C101.924 69.23 102.024 68.8 102.024 68.18V60.08C102.024 59.34 101.894 58.74 101.634 58.28C101.374 57.82 100.984 57.48 100.464 57.26C99.9639 57.02 99.3139 56.9 98.5139 56.9C97.7339 56.9 97.0339 57.04 96.4139 57.32C95.7939 57.58 95.1639 58 94.5239 58.58V68.18C94.5239 68.8 94.6239 69.23 94.8239 69.47C95.0239 69.69 95.4239 69.85 96.0239 69.95L96.9239 70.1V71H89.4239Z" fill="#CA3C37"/>
<path d="M15.27 36.25C12.43 36.25 9.94 35.73 7.8 34.69C5.68 33.65 4.02 32.16 2.82 30.22C1.64 28.28 1.05 25.96 1.05 23.26C1.05 21.38 1.39 19.62 2.07 17.98C2.77 16.34 3.75 14.9 5.01 13.66C6.29 12.42 7.8 11.45 9.54 10.75C11.28 10.05 13.21 9.7 15.33 9.7C17.79 9.7 19.91 10.15 21.69 11.05C23.49 11.95 24.88 13.22 25.86 14.86C26.84 16.48 27.33 18.4 27.33 20.62C27.33 22.78 26.94 24.57 26.16 25.99C25.38 27.39 24.36 28.44 23.1 29.14C21.84 29.84 20.49 30.19 19.05 30.19C18.35 30.19 17.83 30.08 17.49 29.86C17.15 29.64 16.92 29.39 16.8 29.11C16.68 28.81 16.6 28.57 16.56 28.39H16.35C15.55 29.15 14.81 29.65 14.13 29.89C13.47 30.13 12.8 30.25 12.12 30.25C11.32 30.25 10.69 30.13 10.23 29.89C9.77 29.63 9.44 29.3 9.24 28.9C9.06 28.5 8.96 28.1 8.94 27.7C8.92 27.08 9.11 26.45 9.51 25.81C9.93 25.15 10.65 24.5 11.67 23.86C12.69 23.2 14.09 22.57 15.87 21.97L16.59 21.73L16.68 19.12C16.72 18.44 16.52 17.88 16.08 17.44C15.64 17 15.04 16.78 14.28 16.78C13.7 16.78 13.15 16.98 12.63 17.38C12.13 17.78 11.8 18.41 11.64 19.27C11.62 19.41 11.44 19.58 11.1 19.78C10.78 19.96 10.35 20.05 9.81 20.05C9.49 20.05 9.23 20.01 9.03 19.93C8.85 19.85 8.8 19.68 8.88 19.42C9.14 18.7 9.61 18.05 10.29 17.47C10.97 16.87 11.74 16.4 12.6 16.06C13.48 15.72 14.34 15.55 15.18 15.55C16.36 15.55 17.33 15.84 18.09 16.42C18.85 16.98 19.21 17.76 19.17 18.76L18.9 27.07C18.88 27.63 18.98 28.05 19.2 28.33C19.44 28.61 19.87 28.75 20.49 28.75C21.31 28.75 22.05 28.44 22.71 27.82C23.39 27.2 23.93 26.35 24.33 25.27C24.73 24.19 24.93 22.95 24.93 21.55C24.93 19.23 24.49 17.28 23.61 15.7C22.73 14.12 21.52 12.92 19.98 12.1C18.44 11.28 16.68 10.87 14.7 10.87C13.06 10.87 11.56 11.17 10.2 11.77C8.84 12.37 7.66 13.21 6.66 14.29C5.68 15.37 4.92 16.65 4.38 18.13C3.86 19.59 3.6 21.19 3.6 22.93C3.6 25.37 4.12 27.5 5.16 29.32C6.2 31.12 7.63 32.51 9.45 33.49C11.27 34.47 13.34 34.96 15.66 34.96C17.18 34.96 18.58 34.78 19.86 34.42C21.14 34.06 22.17 33.58 22.95 32.98L23.58 33.7C22.64 34.52 21.45 35.15 20.01 35.59C18.57 36.03 16.99 36.25 15.27 36.25ZM13.68 28.36C14.32 28.36 14.85 28.26 15.27 28.06C15.69 27.84 16.07 27.62 16.41 27.4L16.56 22.78L16.29 22.87C14.93 23.33 13.91 23.8 13.23 24.28C12.57 24.74 12.14 25.19 11.94 25.63C11.74 26.07 11.65 26.48 11.67 26.86C11.71 27.4 11.89 27.79 12.21 28.03C12.55 28.25 13.04 28.36 13.68 28.36ZM28.8952 38.41V37.51L29.7952 37.36C30.4152 37.26 30.8152 37.09 30.9952 36.85C31.1952 36.63 31.2952 36.21 31.2952 35.59V19.24C31.2952 18.6 31.1552 18.15 30.8752 17.89C30.5952 17.61 29.9552 17.41 28.9552 17.29V16.54L33.4852 15.22H33.9052V17.41H34.0852C34.6452 16.87 35.1952 16.43 35.7352 16.09C36.2752 15.75 36.8252 15.5 37.3852 15.34C37.9452 15.18 38.5452 15.1 39.1852 15.1C40.5652 15.1 41.7752 15.43 42.8152 16.09C43.8752 16.73 44.6952 17.62 45.2752 18.76C45.8752 19.9 46.1752 21.23 46.1752 22.75C46.1752 24.41 45.8052 25.89 45.0652 27.19C44.3452 28.47 43.3552 29.48 42.0952 30.22C40.8352 30.94 39.4052 31.3 37.8052 31.3C37.1252 31.3 36.4652 31.22 35.8252 31.06C35.1852 30.92 34.5752 30.71 33.9952 30.43V35.29C33.9952 35.97 34.1152 36.46 34.3552 36.76C34.5952 37.06 35.0252 37.25 35.6452 37.33L36.9952 37.51V38.41H28.8952ZM38.2552 30.16C39.8552 30.16 41.1052 29.62 42.0052 28.54C42.9052 27.44 43.3552 25.9 43.3552 23.92C43.3552 22.54 43.1352 21.34 42.6952 20.32C42.2752 19.28 41.6652 18.48 40.8652 17.92C40.0652 17.34 39.1052 17.05 37.9852 17.05C37.2452 17.05 36.5352 17.18 35.8552 17.44C35.1752 17.7 34.5552 18.09 33.9952 18.61V25.51C33.9952 26.47 34.1552 27.3 34.4752 28C34.7952 28.68 35.2652 29.21 35.8852 29.59C36.5252 29.97 37.3152 30.16 38.2552 30.16ZM51.9359 31.3C51.0359 31.3 50.3259 31.16 49.8059 30.88C49.3059 30.58 48.9459 30.21 48.7259 29.77C48.5259 29.31 48.4259 28.85 48.4259 28.39C48.4259 27.71 48.6659 27.03 49.1459 26.35C49.6459 25.65 50.4559 24.95 51.5759 24.25C52.7159 23.55 54.2459 22.86 56.1659 22.18L56.9159 21.91L57.0059 18.94C57.0259 18.2 56.7959 17.59 56.3159 17.11C55.8359 16.61 55.1659 16.36 54.3059 16.36C53.6259 16.36 53.0259 16.59 52.5059 17.05C51.9859 17.51 51.6159 18.23 51.3959 19.21C51.3559 19.41 51.1459 19.6 50.7659 19.78C50.4059 19.94 49.9259 20.02 49.3259 20.02C48.9859 20.02 48.7259 19.98 48.5459 19.9C48.3659 19.82 48.3159 19.64 48.3959 19.36C48.7159 18.58 49.2459 17.87 49.9859 17.23C50.7259 16.59 51.5659 16.08 52.5059 15.7C53.4459 15.3 54.3759 15.1 55.2959 15.1C56.5959 15.1 57.6559 15.41 58.4759 16.03C59.3159 16.65 59.7159 17.52 59.6759 18.64L59.3759 27.79C59.3559 28.57 59.5459 29.07 59.9459 29.29C60.3659 29.51 61.1559 29.66 62.3159 29.74V30.43L61.2659 30.7C60.6259 30.9 60.1159 31.03 59.7359 31.09C59.3759 31.17 59.0959 31.21 58.8959 31.21C58.3559 31.21 57.9459 31.09 57.6659 30.85C57.4059 30.61 57.2159 30.33 57.0959 30.01C56.9959 29.69 56.9259 29.43 56.8859 29.23H56.6459C55.7859 30.07 54.9759 30.63 54.2159 30.91C53.4759 31.17 52.7159 31.3 51.9359 31.3ZM53.6459 29.32C54.3659 29.32 54.9559 29.21 55.4159 28.99C55.8959 28.75 56.3259 28.5 56.7059 28.24L56.8859 22.93L56.6459 23.02C55.2059 23.56 54.1059 24.09 53.3459 24.61C52.5859 25.13 52.0659 25.63 51.7859 26.11C51.5259 26.59 51.3959 27.03 51.3959 27.43C51.3959 28.69 52.1459 29.32 53.6459 29.32ZM68.9738 31.3C67.7338 31.3 66.7438 30.98 66.0038 30.34C65.2638 29.7 64.8938 28.66 64.8938 27.22V17.2H63.0038V16.3C64.5638 15.44 65.8038 14.3 66.7238 12.88H67.6238V15.34V16.21V26.41C67.6238 27.19 67.7538 27.78 68.0138 28.18C68.2738 28.58 68.6238 28.85 69.0638 28.99C69.5238 29.11 70.0138 29.17 70.5338 29.17C71.2138 29.17 71.8038 29.07 72.3038 28.87C72.8038 28.67 73.2738 28.44 73.7138 28.18L74.2538 28.81C73.6338 29.45 72.8838 30.03 72.0038 30.55C71.1238 31.05 70.1138 31.3 68.9738 31.3ZM66.3037 17.2V15.4H73.8938V15.85L73.1138 17.2H66.3037ZM82.2909 31.3C80.8309 31.3 79.5309 30.96 78.3909 30.28C77.2709 29.58 76.3909 28.64 75.7509 27.46C75.1109 26.26 74.7909 24.91 74.7909 23.41C74.7909 21.81 75.1409 20.39 75.8409 19.15C76.5609 17.89 77.5409 16.9 78.7809 16.18C80.0209 15.46 81.4209 15.1 82.9809 15.1C84.0209 15.1 84.9209 15.24 85.6809 15.52C86.4609 15.8 87.0609 16.14 87.4809 16.54C87.9209 16.94 88.1409 17.32 88.1409 17.68C88.1409 18 87.9809 18.27 87.6609 18.49C87.3409 18.69 86.9909 18.81 86.6109 18.85C86.2309 18.89 85.9409 18.83 85.7409 18.67L83.8209 16.96C83.5609 16.72 83.3009 16.56 83.0409 16.48C82.7809 16.38 82.4509 16.33 82.0509 16.33C81.1309 16.33 80.3309 16.6 79.6509 17.14C78.9709 17.68 78.4409 18.41 78.0609 19.33C77.7009 20.23 77.5209 21.24 77.5209 22.36C77.5209 23.68 77.7709 24.85 78.2709 25.87C78.7909 26.89 79.5009 27.7 80.4009 28.3C81.3209 28.88 82.3609 29.17 83.5209 29.17C84.2209 29.17 84.9109 29.05 85.5909 28.81C86.2709 28.57 86.9809 28.17 87.7209 27.61L88.3209 28.18C87.3809 29.28 86.4209 30.08 85.4409 30.58C84.4609 31.06 83.4109 31.3 82.2909 31.3ZM89.4239 31V30.1L90.3239 29.95C90.9239 29.85 91.3239 29.69 91.5239 29.47C91.7239 29.23 91.8239 28.8 91.8239 28.18V11.02C91.8239 10.38 91.6839 9.93 91.4039 9.67C91.1239 9.39 90.4839 9.19 89.4839 9.07V8.32L94.1039 7H94.5239V17.32H94.7039C95.3239 16.78 95.9039 16.35 96.4439 16.03C96.9839 15.71 97.5439 15.48 98.1239 15.34C98.7239 15.18 99.4039 15.1 100.164 15.1C101.584 15.1 102.694 15.46 103.494 16.18C104.314 16.88 104.724 17.88 104.724 19.18V28.18C104.724 28.8 104.824 29.23 105.024 29.47C105.224 29.69 105.624 29.85 106.224 29.95L107.124 30.1V31H99.6239V30.1L100.524 29.95C101.124 29.85 101.524 29.69 101.724 29.47C101.924 29.23 102.024 28.8 102.024 28.18V20.08C102.024 19.34 101.894 18.74 101.634 18.28C101.374 17.82 100.984 17.48 100.464 17.26C99.9639 17.02 99.3139 16.9 98.5139 16.9C97.7339 16.9 97.0339 17.04 96.4139 17.32C95.7939 17.58 95.1639 18 94.5239 18.58V28.18C94.5239 28.8 94.6239 29.23 94.8239 29.47C95.0239 29.69 95.4239 29.85 96.0239 29.95L96.9239 30.1V31H89.4239Z" fill="#CABE37"/>
<path d="M48.27 178.25C45.43 178.25 42.94 177.73 40.8 176.69C38.68 175.65 37.02 174.16 35.82 172.22C34.64 170.28 34.05 167.96 34.05 165.26C34.05 163.38 34.39 161.62 35.07 159.98C35.77 158.34 36.75 156.9 38.01 155.66C39.29 154.42 40.8 153.45 42.54 152.75C44.28 152.05 46.21 151.7 48.33 151.7C50.79 151.7 52.91 152.15 54.69 153.05C56.49 153.95 57.88 155.22 58.86 156.86C59.84 158.48 60.33 160.4 60.33 162.62C60.33 164.78 59.94 166.57 59.16 167.99C58.38 169.39 57.36 170.44 56.1 171.14C54.84 171.84 53.49 172.19 52.05 172.19C51.35 172.19 50.83 172.08 50.49 171.86C50.15 171.64 49.92 171.39 49.8 171.11C49.68 170.81 49.6 170.57 49.56 170.39H49.35C48.55 171.15 47.81 171.65 47.13 171.89C46.47 172.13 45.8 172.25 45.12 172.25C44.32 172.25 43.69 172.13 43.23 171.89C42.77 171.63 42.44 171.3 42.24 170.9C42.06 170.5 41.96 170.1 41.94 169.7C41.92 169.08 42.11 168.45 42.51 167.81C42.93 167.15 43.65 166.5 44.67 165.86C45.69 165.2 47.09 164.57 48.87 163.97L49.59 163.73L49.68 161.12C49.72 160.44 49.52 159.88 49.08 159.44C48.64 159 48.04 158.78 47.28 158.78C46.7 158.78 46.15 158.98 45.63 159.38C45.13 159.78 44.8 160.41 44.64 161.27C44.62 161.41 44.44 161.58 44.1 161.78C43.78 161.96 43.35 162.05 42.81 162.05C42.49 162.05 42.23 162.01 42.03 161.93C41.85 161.85 41.8 161.68 41.88 161.42C42.14 160.7 42.61 160.05 43.29 159.47C43.97 158.87 44.74 158.4 45.6 158.06C46.48 157.72 47.34 157.55 48.18 157.55C49.36 157.55 50.33 157.84 51.09 158.42C51.85 158.98 52.21 159.76 52.17 160.76L51.9 169.07C51.88 169.63 51.98 170.05 52.2 170.33C52.44 170.61 52.87 170.75 53.49 170.75C54.31 170.75 55.05 170.44 55.71 169.82C56.39 169.2 56.93 168.35 57.33 167.27C57.73 166.19 57.93 164.95 57.93 163.55C57.93 161.23 57.49 159.28 56.61 157.7C55.73 156.12 54.52 154.92 52.98 154.1C51.44 153.28 49.68 152.87 47.7 152.87C46.06 152.87 44.56 153.17 43.2 153.77C41.84 154.37 40.66 155.21 39.66 156.29C38.68 157.37 37.92 158.65 37.38 160.13C36.86 161.59 36.6 163.19 36.6 164.93C36.6 167.37 37.12 169.5 38.16 171.32C39.2 173.12 40.63 174.51 42.45 175.49C44.27 176.47 46.34 176.96 48.66 176.96C50.18 176.96 51.58 176.78 52.86 176.42C54.14 176.06 55.17 175.58 55.95 174.98L56.58 175.7C55.64 176.52 54.45 177.15 53.01 177.59C51.57 178.03 49.99 178.25 48.27 178.25ZM46.68 170.36C47.32 170.36 47.85 170.26 48.27 170.06C48.69 169.84 49.07 169.62 49.41 169.4L49.56 164.78L49.29 164.87C47.93 165.33 46.91 165.8 46.23 166.28C45.57 166.74 45.14 167.19 44.94 167.63C44.74 168.07 44.65 168.48 44.67 168.86C44.71 169.4 44.89 169.79 45.21 170.03C45.55 170.25 46.04 170.36 46.68 170.36ZM61.8952 180.41V179.51L62.7952 179.36C63.4152 179.26 63.8152 179.09 63.9952 178.85C64.1952 178.63 64.2952 178.21 64.2952 177.59V161.24C64.2952 160.6 64.1552 160.15 63.8752 159.89C63.5952 159.61 62.9552 159.41 61.9552 159.29V158.54L66.4852 157.22H66.9052V159.41H67.0852C67.6452 158.87 68.1952 158.43 68.7352 158.09C69.2752 157.75 69.8252 157.5 70.3852 157.34C70.9452 157.18 71.5452 157.1 72.1852 157.1C73.5652 157.1 74.7752 157.43 75.8152 158.09C76.8752 158.73 77.6952 159.62 78.2752 160.76C78.8752 161.9 79.1752 163.23 79.1752 164.75C79.1752 166.41 78.8052 167.89 78.0652 169.19C77.3452 170.47 76.3552 171.48 75.0952 172.22C73.8352 172.94 72.4052 173.3 70.8052 173.3C70.1252 173.3 69.4652 173.22 68.8252 173.06C68.1852 172.92 67.5752 172.71 66.9952 172.43V177.29C66.9952 177.97 67.1152 178.46 67.3552 178.76C67.5952 179.06 68.0252 179.25 68.6452 179.33L69.9952 179.51V180.41H61.8952ZM71.2552 172.16C72.8552 172.16 74.1052 171.62 75.0052 170.54C75.9052 169.44 76.3552 167.9 76.3552 165.92C76.3552 164.54 76.1352 163.34 75.6952 162.32C75.2752 161.28 74.6652 160.48 73.8652 159.92C73.0652 159.34 72.1052 159.05 70.9852 159.05C70.2452 159.05 69.5352 159.18 68.8552 159.44C68.1752 159.7 67.5552 160.09 66.9952 160.61V167.51C66.9952 168.47 67.1552 169.3 67.4752 170C67.7952 170.68 68.2652 171.21 68.8852 171.59C69.5252 171.97 70.3152 172.16 71.2552 172.16ZM84.9359 173.3C84.0359 173.3 83.3259 173.16 82.8059 172.88C82.3059 172.58 81.9459 172.21 81.7259 171.77C81.5259 171.31 81.4259 170.85 81.4259 170.39C81.4259 169.71 81.6659 169.03 82.1459 168.35C82.6459 167.65 83.4559 166.95 84.5759 166.25C85.7159 165.55 87.2459 164.86 89.1659 164.18L89.9159 163.91L90.0059 160.94C90.0259 160.2 89.7959 159.59 89.3159 159.11C88.8359 158.61 88.1659 158.36 87.3059 158.36C86.6259 158.36 86.0259 158.59 85.5059 159.05C84.9859 159.51 84.6159 160.23 84.3959 161.21C84.3559 161.41 84.1459 161.6 83.7659 161.78C83.4059 161.94 82.9259 162.02 82.3259 162.02C81.9859 162.02 81.7259 161.98 81.5459 161.9C81.3659 161.82 81.3159 161.64 81.3959 161.36C81.7159 160.58 82.2459 159.87 82.9859 159.23C83.7259 158.59 84.5659 158.08 85.5059 157.7C86.4459 157.3 87.3759 157.1 88.2959 157.1C89.5959 157.1 90.6559 157.41 91.4759 158.03C92.3159 158.65 92.7159 159.52 92.6759 160.64L92.3759 169.79C92.3559 170.57 92.5459 171.07 92.9459 171.29C93.3659 171.51 94.1559 171.66 95.3159 171.74V172.43L94.2659 172.7C93.6259 172.9 93.1159 173.03 92.7359 173.09C92.3759 173.17 92.0959 173.21 91.8959 173.21C91.3559 173.21 90.9459 173.09 90.6659 172.85C90.4059 172.61 90.2159 172.33 90.0959 172.01C89.9959 171.69 89.9259 171.43 89.8859 171.23H89.6459C88.7859 172.07 87.9759 172.63 87.2159 172.91C86.4759 173.17 85.7159 173.3 84.9359 173.3ZM86.6459 171.32C87.3659 171.32 87.9559 171.21 88.4159 170.99C88.8959 170.75 89.3259 170.5 89.7059 170.24L89.8859 164.93L89.6459 165.02C88.2059 165.56 87.1059 166.09 86.3459 166.61C85.5859 167.13 85.0659 167.63 84.7859 168.11C84.5259 168.59 84.3959 169.03 84.3959 169.43C84.3959 170.69 85.1459 171.32 86.6459 171.32ZM101.974 173.3C100.734 173.3 99.7438 172.98 99.0038 172.34C98.2638 171.7 97.8938 170.66 97.8938 169.22V159.2H96.0038V158.3C97.5638 157.44 98.8038 156.3 99.7238 154.88H100.624V157.34V158.21V168.41C100.624 169.19 100.754 169.78 101.014 170.18C101.274 170.58 101.624 170.85 102.064 170.99C102.524 171.11 103.014 171.17 103.534 171.17C104.214 171.17 104.804 171.07 105.304 170.87C105.804 170.67 106.274 170.44 106.714 170.18L107.254 170.81C106.634 171.45 105.884 172.03 105.004 172.55C104.124 173.05 103.114 173.3 101.974 173.3ZM99.3037 159.2V157.4H106.894V157.85L106.114 159.2H99.3037ZM115.291 173.3C113.831 173.3 112.531 172.96 111.391 172.28C110.271 171.58 109.391 170.64 108.751 169.46C108.111 168.26 107.791 166.91 107.791 165.41C107.791 163.81 108.141 162.39 108.841 161.15C109.561 159.89 110.541 158.9 111.781 158.18C113.021 157.46 114.421 157.1 115.981 157.1C117.021 157.1 117.921 157.24 118.681 157.52C119.461 157.8 120.061 158.14 120.481 158.54C120.921 158.94 121.141 159.32 121.141 159.68C121.141 160 120.981 160.27 120.661 160.49C120.341 160.69 119.991 160.81 119.611 160.85C119.231 160.89 118.941 160.83 118.741 160.67L116.821 158.96C116.561 158.72 116.301 158.56 116.041 158.48C115.781 158.38 115.451 158.33 115.051 158.33C114.131 158.33 113.331 158.6 112.651 159.14C111.971 159.68 111.441 160.41 111.061 161.33C110.701 162.23 110.521 163.24 110.521 164.36C110.521 165.68 110.771 166.85 111.271 167.87C111.791 168.89 112.501 169.7 113.401 170.3C114.321 170.88 115.361 171.17 116.521 171.17C117.221 171.17 117.911 171.05 118.591 170.81C119.271 170.57 119.981 170.17 120.721 169.61L121.321 170.18C120.381 171.28 119.421 172.08 118.441 172.58C117.461 173.06 116.411 173.3 115.291 173.3ZM122.424 173V172.1L123.324 171.95C123.924 171.85 124.324 171.69 124.524 171.47C124.724 171.23 124.824 170.8 124.824 170.18V153.02C124.824 152.38 124.684 151.93 124.404 151.67C124.124 151.39 123.484 151.19 122.484 151.07V150.32L127.104 149H127.524V159.32H127.704C128.324 158.78 128.904 158.35 129.444 158.03C129.984 157.71 130.544 157.48 131.124 157.34C131.724 157.18 132.404 157.1 133.164 157.1C134.584 157.1 135.694 157.46 136.494 158.18C137.314 158.88 137.724 159.88 137.724 161.18V170.18C137.724 170.8 137.824 171.23 138.024 171.47C138.224 171.69 138.624 171.85 139.224 171.95L140.124 172.1V173H132.624V172.1L133.524 171.95C134.124 171.85 134.524 171.69 134.724 171.47C134.924 171.23 135.024 170.8 135.024 170.18V162.08C135.024 161.34 134.894 160.74 134.634 160.28C134.374 159.82 133.984 159.48 133.464 159.26C132.964 159.02 132.314 158.9 131.514 158.9C130.734 158.9 130.034 159.04 129.414 159.32C128.794 159.58 128.164 160 127.524 160.58V170.18C127.524 170.8 127.624 171.23 127.824 171.47C128.024 171.69 128.424 171.85 129.024 171.95L129.924 172.1V173H122.424Z" fill="#37CA3C"/>
<path d="M48.27 138.25C45.43 138.25 42.94 137.73 40.8 136.69C38.68 135.65 37.02 134.16 35.82 132.22C34.64 130.28 34.05 127.96 34.05 125.26C34.05 123.38 34.39 121.62 35.07 119.98C35.77 118.34 36.75 116.9 38.01 115.66C39.29 114.42 40.8 113.45 42.54 112.75C44.28 112.05 46.21 111.7 48.33 111.7C50.79 111.7 52.91 112.15 54.69 113.05C56.49 113.95 57.88 115.22 58.86 116.86C59.84 118.48 60.33 120.4 60.33 122.62C60.33 124.78 59.94 126.57 59.16 127.99C58.38 129.39 57.36 130.44 56.1 131.14C54.84 131.84 53.49 132.19 52.05 132.19C51.35 132.19 50.83 132.08 50.49 131.86C50.15 131.64 49.92 131.39 49.8 131.11C49.68 130.81 49.6 130.57 49.56 130.39H49.35C48.55 131.15 47.81 131.65 47.13 131.89C46.47 132.13 45.8 132.25 45.12 132.25C44.32 132.25 43.69 132.13 43.23 131.89C42.77 131.63 42.44 131.3 42.24 130.9C42.06 130.5 41.96 130.1 41.94 129.7C41.92 129.08 42.11 128.45 42.51 127.81C42.93 127.15 43.65 126.5 44.67 125.86C45.69 125.2 47.09 124.57 48.87 123.97L49.59 123.73L49.68 121.12C49.72 120.44 49.52 119.88 49.08 119.44C48.64 119 48.04 118.78 47.28 118.78C46.7 118.78 46.15 118.98 45.63 119.38C45.13 119.78 44.8 120.41 44.64 121.27C44.62 121.41 44.44 121.58 44.1 121.78C43.78 121.96 43.35 122.05 42.81 122.05C42.49 122.05 42.23 122.01 42.03 121.93C41.85 121.85 41.8 121.68 41.88 121.42C42.14 120.7 42.61 120.05 43.29 119.47C43.97 118.87 44.74 118.4 45.6 118.06C46.48 117.72 47.34 117.55 48.18 117.55C49.36 117.55 50.33 117.84 51.09 118.42C51.85 118.98 52.21 119.76 52.17 120.76L51.9 129.07C51.88 129.63 51.98 130.05 52.2 130.33C52.44 130.61 52.87 130.75 53.49 130.75C54.31 130.75 55.05 130.44 55.71 129.82C56.39 129.2 56.93 128.35 57.33 127.27C57.73 126.19 57.93 124.95 57.93 123.55C57.93 121.23 57.49 119.28 56.61 117.7C55.73 116.12 54.52 114.92 52.98 114.1C51.44 113.28 49.68 112.87 47.7 112.87C46.06 112.87 44.56 113.17 43.2 113.77C41.84 114.37 40.66 115.21 39.66 116.29C38.68 117.37 37.92 118.65 37.38 120.13C36.86 121.59 36.6 123.19 36.6 124.93C36.6 127.37 37.12 129.5 38.16 131.32C39.2 133.12 40.63 134.51 42.45 135.49C44.27 136.47 46.34 136.96 48.66 136.96C50.18 136.96 51.58 136.78 52.86 136.42C54.14 136.06 55.17 135.58 55.95 134.98L56.58 135.7C55.64 136.52 54.45 137.15 53.01 137.59C51.57 138.03 49.99 138.25 48.27 138.25ZM46.68 130.36C47.32 130.36 47.85 130.26 48.27 130.06C48.69 129.84 49.07 129.62 49.41 129.4L49.56 124.78L49.29 124.87C47.93 125.33 46.91 125.8 46.23 126.28C45.57 126.74 45.14 127.19 44.94 127.63C44.74 128.07 44.65 128.48 44.67 128.86C44.71 129.4 44.89 129.79 45.21 130.03C45.55 130.25 46.04 130.36 46.68 130.36ZM61.8952 140.41V139.51L62.7952 139.36C63.4152 139.26 63.8152 139.09 63.9952 138.85C64.1952 138.63 64.2952 138.21 64.2952 137.59V121.24C64.2952 120.6 64.1552 120.15 63.8752 119.89C63.5952 119.61 62.9552 119.41 61.9552 119.29V118.54L66.4852 117.22H66.9052V119.41H67.0852C67.6452 118.87 68.1952 118.43 68.7352 118.09C69.2752 117.75 69.8252 117.5 70.3852 117.34C70.9452 117.18 71.5452 117.1 72.1852 117.1C73.5652 117.1 74.7752 117.43 75.8152 118.09C76.8752 118.73 77.6952 119.62 78.2752 120.76C78.8752 121.9 79.1752 123.23 79.1752 124.75C79.1752 126.41 78.8052 127.89 78.0652 129.19C77.3452 130.47 76.3552 131.48 75.0952 132.22C73.8352 132.94 72.4052 133.3 70.8052 133.3C70.1252 133.3 69.4652 133.22 68.8252 133.06C68.1852 132.92 67.5752 132.71 66.9952 132.43V137.29C66.9952 137.97 67.1152 138.46 67.3552 138.76C67.5952 139.06 68.0252 139.25 68.6452 139.33L69.9952 139.51V140.41H61.8952ZM71.2552 132.16C72.8552 132.16 74.1052 131.62 75.0052 130.54C75.9052 129.44 76.3552 127.9 76.3552 125.92C76.3552 124.54 76.1352 123.34 75.6952 122.32C75.2752 121.28 74.6652 120.48 73.8652 119.92C73.0652 119.34 72.1052 119.05 70.9852 119.05C70.2452 119.05 69.5352 119.18 68.8552 119.44C68.1752 119.7 67.5552 120.09 66.9952 120.61V127.51C66.9952 128.47 67.1552 129.3 67.4752 130C67.7952 130.68 68.2652 131.21 68.8852 131.59C69.5252 131.97 70.3152 132.16 71.2552 132.16ZM84.9359 133.3C84.0359 133.3 83.3259 133.16 82.8059 132.88C82.3059 132.58 81.9459 132.21 81.7259 131.77C81.5259 131.31 81.4259 130.85 81.4259 130.39C81.4259 129.71 81.6659 129.03 82.1459 128.35C82.6459 127.65 83.4559 126.95 84.5759 126.25C85.7159 125.55 87.2459 124.86 89.1659 124.18L89.9159 123.91L90.0059 120.94C90.0259 120.2 89.7959 119.59 89.3159 119.11C88.8359 118.61 88.1659 118.36 87.3059 118.36C86.6259 118.36 86.0259 118.59 85.5059 119.05C84.9859 119.51 84.6159 120.23 84.3959 121.21C84.3559 121.41 84.1459 121.6 83.7659 121.78C83.4059 121.94 82.9259 122.02 82.3259 122.02C81.9859 122.02 81.7259 121.98 81.5459 121.9C81.3659 121.82 81.3159 121.64 81.3959 121.36C81.7159 120.58 82.2459 119.87 82.9859 119.23C83.7259 118.59 84.5659 118.08 85.5059 117.7C86.4459 117.3 87.3759 117.1 88.2959 117.1C89.5959 117.1 90.6559 117.41 91.4759 118.03C92.3159 118.65 92.7159 119.52 92.6759 120.64L92.3759 129.79C92.3559 130.57 92.5459 131.07 92.9459 131.29C93.3659 131.51 94.1559 131.66 95.3159 131.74V132.43L94.2659 132.7C93.6259 132.9 93.1159 133.03 92.7359 133.09C92.3759 133.17 92.0959 133.21 91.8959 133.21C91.3559 133.21 90.9459 133.09 90.6659 132.85C90.4059 132.61 90.2159 132.33 90.0959 132.01C89.9959 131.69 89.9259 131.43 89.8859 131.23H89.6459C88.7859 132.07 87.9759 132.63 87.2159 132.91C86.4759 133.17 85.7159 133.3 84.9359 133.3ZM86.6459 131.32C87.3659 131.32 87.9559 131.21 88.4159 130.99C88.8959 130.75 89.3259 130.5 89.7059 130.24L89.8859 124.93L89.6459 125.02C88.2059 125.56 87.1059 126.09 86.3459 126.61C85.5859 127.13 85.0659 127.63 84.7859 128.11C84.5259 128.59 84.3959 129.03 84.3959 129.43C84.3959 130.69 85.1459 131.32 86.6459 131.32ZM101.974 133.3C100.734 133.3 99.7438 132.98 99.0038 132.34C98.2638 131.7 97.8938 130.66 97.8938 129.22V119.2H96.0038V118.3C97.5638 117.44 98.8038 116.3 99.7238 114.88H100.624V117.34V118.21V128.41C100.624 129.19 100.754 129.78 101.014 130.18C101.274 130.58 101.624 130.85 102.064 130.99C102.524 131.11 103.014 131.17 103.534 131.17C104.214 131.17 104.804 131.07 105.304 130.87C105.804 130.67 106.274 130.44 106.714 130.18L107.254 130.81C106.634 131.45 105.884 132.03 105.004 132.55C104.124 133.05 103.114 133.3 101.974 133.3ZM99.3037 119.2V117.4H106.894V117.85L106.114 119.2H99.3037ZM115.291 133.3C113.831 133.3 112.531 132.96 111.391 132.28C110.271 131.58 109.391 130.64 108.751 129.46C108.111 128.26 107.791 126.91 107.791 125.41C107.791 123.81 108.141 122.39 108.841 121.15C109.561 119.89 110.541 118.9 111.781 118.18C113.021 117.46 114.421 117.1 115.981 117.1C117.021 117.1 117.921 117.24 118.681 117.52C119.461 117.8 120.061 118.14 120.481 118.54C120.921 118.94 121.141 119.32 121.141 119.68C121.141 120 120.981 120.27 120.661 120.49C120.341 120.69 119.991 120.81 119.611 120.85C119.231 120.89 118.941 120.83 118.741 120.67L116.821 118.96C116.561 118.72 116.301 118.56 116.041 118.48C115.781 118.38 115.451 118.33 115.051 118.33C114.131 118.33 113.331 118.6 112.651 119.14C111.971 119.68 111.441 120.41 111.061 121.33C110.701 122.23 110.521 123.24 110.521 124.36C110.521 125.68 110.771 126.85 111.271 127.87C111.791 128.89 112.501 129.7 113.401 130.3C114.321 130.88 115.361 131.17 116.521 131.17C117.221 131.17 117.911 131.05 118.591 130.81C119.271 130.57 119.981 130.17 120.721 129.61L121.321 130.18C120.381 131.28 119.421 132.08 118.441 132.58C117.461 133.06 116.411 133.3 115.291 133.3ZM122.424 133V132.1L123.324 131.95C123.924 131.85 124.324 131.69 124.524 131.47C124.724 131.23 124.824 130.8 124.824 130.18V113.02C124.824 112.38 124.684 111.93 124.404 111.67C124.124 111.39 123.484 111.19 122.484 111.07V110.32L127.104 109H127.524V119.32H127.704C128.324 118.78 128.904 118.35 129.444 118.03C129.984 117.71 130.544 117.48 131.124 117.34C131.724 117.18 132.404 117.1 133.164 117.1C134.584 117.1 135.694 117.46 136.494 118.18C137.314 118.88 137.724 119.88 137.724 121.18V130.18C137.724 130.8 137.824 131.23 138.024 131.47C138.224 131.69 138.624 131.85 139.224 131.95L140.124 132.1V133H132.624V132.1L133.524 131.95C134.124 131.85 134.524 131.69 134.724 131.47C134.924 131.23 135.024 130.8 135.024 130.18V122.08C135.024 121.34 134.894 120.74 134.634 120.28C134.374 119.82 133.984 119.48 133.464 119.26C132.964 119.02 132.314 118.9 131.514 118.9C130.734 118.9 130.034 119.04 129.414 119.32C128.794 119.58 128.164 120 127.524 120.58V130.18C127.524 130.8 127.624 131.23 127.824 131.47C128.024 131.69 128.424 131.85 129.024 131.95L129.924 132.1V133H122.424Z" fill="#CA37B7"/>
<path d="M295.68 213.3C294.78 213.3 294.07 213.16 293.55 212.88C293.05 212.58 292.69 212.21 292.47 211.77C292.27 211.31 292.17 210.85 292.17 210.39C292.17 209.71 292.41 209.03 292.89 208.35C293.39 207.65 294.2 206.95 295.32 206.25C296.46 205.55 297.99 204.86 299.91 204.18L300.66 203.91L300.75 200.94C300.77 200.2 300.54 199.59 300.06 199.11C299.58 198.61 298.91 198.36 298.05 198.36C297.37 198.36 296.77 198.59 296.25 199.05C295.73 199.51 295.36 200.23 295.14 201.21C295.1 201.41 294.89 201.6 294.51 201.78C294.15 201.94 293.67 202.02 293.07 202.02C292.73 202.02 292.47 201.98 292.29 201.9C292.11 201.82 292.06 201.64 292.14 201.36C292.46 200.58 292.99 199.87 293.73 199.23C294.47 198.59 295.31 198.08 296.25 197.7C297.19 197.3 298.12 197.1 299.04 197.1C300.34 197.1 301.4 197.41 302.22 198.03C303.06 198.65 303.46 199.52 303.42 200.64L303.12 209.79C303.1 210.57 303.29 211.07 303.69 211.29C304.11 211.51 304.9 211.66 306.06 211.74V212.43L305.01 212.7C304.37 212.9 303.86 213.03 303.48 213.09C303.12 213.17 302.84 213.21 302.64 213.21C302.1 213.21 301.69 213.09 301.41 212.85C301.15 212.61 300.96 212.33 300.84 212.01C300.74 211.69 300.67 211.43 300.63 211.23H300.39C299.53 212.07 298.72 212.63 297.96 212.91C297.22 213.17 296.46 213.3 295.68 213.3ZM297.39 211.32C298.11 211.32 298.7 211.21 299.16 210.99C299.64 210.75 300.07 210.5 300.45 210.24L300.63 204.93L300.39 205.02C298.95 205.56 297.85 206.09 297.09 206.61C296.33 207.13 295.81 207.63 295.53 208.11C295.27 208.59 295.14 209.03 295.14 209.43C295.14 210.69 295.89 211.32 297.39 211.32ZM306.748 213V212.1L307.648 211.95C308.268 211.85 308.668 211.69 308.848 211.47C309.048 211.23 309.148 210.8 309.148 210.18V201.24C309.148 200.56 308.988 200.1 308.668 199.86C308.368 199.6 307.748 199.41 306.808 199.29V198.54L311.338 197.22H311.758V199.62H312.028C312.528 198.9 313.138 198.31 313.858 197.85C314.598 197.39 315.438 197.16 316.378 197.16C317.098 197.16 317.638 197.31 317.998 197.61C318.378 197.91 318.568 198.3 318.568 198.78C318.568 199.1 318.438 199.39 318.178 199.65C317.938 199.91 317.648 200.09 317.308 200.19C316.968 200.27 316.638 200.22 316.318 200.04L314.878 199.2C314.638 199.06 314.348 199.08 314.008 199.26C313.668 199.44 313.328 199.68 312.988 199.98C312.668 200.26 312.398 200.54 312.178 200.82C311.958 201.08 311.848 201.23 311.848 201.27V210.18C311.848 210.8 311.948 211.23 312.148 211.47C312.348 211.69 312.748 211.84 313.348 211.92L314.848 212.1V213H306.748ZM324.755 220.71C323.055 220.71 321.685 220.37 320.645 219.69C319.625 219.01 319.115 218.13 319.115 217.05C319.115 216.63 319.225 216.15 319.445 215.61C319.685 215.09 320.145 214.49 320.825 213.81L322.475 212.16L323.615 212.34C322.935 213.12 322.405 213.76 322.025 214.26C321.665 214.78 321.485 215.32 321.485 215.88C321.485 216.78 321.915 217.46 322.775 217.92C323.655 218.4 324.855 218.64 326.375 218.64C328.055 218.64 329.365 218.32 330.305 217.68C331.265 217.04 331.745 216.2 331.745 215.16C331.745 214.5 331.525 214.02 331.085 213.72C330.645 213.42 329.845 213.23 328.685 213.15L322.895 212.73C321.975 212.65 321.225 212.42 320.645 212.04C320.085 211.64 319.805 211.13 319.805 210.51C319.805 209.99 319.985 209.56 320.345 209.22C320.705 208.88 321.165 208.45 321.725 207.93L322.655 207.03H323.945L323.045 208.05C322.765 208.37 322.575 208.61 322.475 208.77C322.395 208.91 322.355 209.06 322.355 209.22C322.355 209.48 322.455 209.69 322.655 209.85C322.875 210.01 323.225 210.11 323.705 210.15L329.435 210.63C331.995 210.83 333.275 211.98 333.275 214.08C333.275 215.32 332.885 216.44 332.105 217.44C331.345 218.44 330.325 219.23 329.045 219.81C327.765 220.41 326.335 220.71 324.755 220.71ZM325.325 207.72C324.205 207.72 323.205 207.5 322.325 207.06C321.445 206.6 320.755 205.97 320.255 205.17C319.755 204.37 319.505 203.46 319.505 202.44C319.505 201.4 319.755 200.48 320.255 199.68C320.775 198.88 321.485 198.25 322.385 197.79C323.285 197.33 324.305 197.1 325.445 197.1L326.675 197.19C328.035 197.43 329.135 198.01 329.975 198.93C330.835 199.85 331.265 200.98 331.265 202.32C331.265 203.36 331.005 204.29 330.485 205.11C329.985 205.91 329.285 206.55 328.385 207.03C327.485 207.49 326.465 207.72 325.325 207.72ZM325.625 206.55C326.585 206.55 327.325 206.23 327.845 205.59C328.365 204.93 328.625 203.99 328.625 202.77C328.625 201.85 328.485 201.06 328.205 200.4C327.925 199.72 327.525 199.2 327.005 198.84C326.485 198.46 325.865 198.27 325.145 198.27C324.185 198.27 323.445 198.6 322.925 199.26C322.405 199.9 322.145 200.83 322.145 202.05C322.145 202.97 322.285 203.77 322.565 204.45C322.845 205.11 323.245 205.63 323.765 206.01C324.305 206.37 324.925 206.55 325.625 206.55ZM325.445 197.55V197.1L332.885 195.66H333.455V197.55H325.445ZM334.468 213V212.25C335.428 211.29 336.448 210.23 337.528 209.07C338.628 207.91 339.668 206.69 340.648 205.41C341.628 204.13 342.428 202.83 343.048 201.51C343.668 200.19 343.978 198.88 343.978 197.58C343.978 196.16 343.628 195.09 342.928 194.37C342.228 193.63 341.258 193.26 340.018 193.26C339.098 193.26 338.208 193.57 337.348 194.19C336.488 194.79 335.888 195.77 335.548 197.13L334.378 196.89C334.578 195.69 334.998 194.71 335.638 193.95C336.278 193.17 337.038 192.6 337.918 192.24C338.818 191.88 339.748 191.7 340.708 191.7C341.408 191.7 342.108 191.79 342.808 191.97C343.528 192.13 344.188 192.42 344.788 192.84C345.388 193.24 345.868 193.8 346.228 194.52C346.608 195.22 346.798 196.11 346.798 197.19C346.798 198.43 346.518 199.64 345.958 200.82C345.398 201.98 344.638 203.14 343.678 204.3C342.718 205.46 341.648 206.64 340.468 207.84C339.288 209.02 338.068 210.25 336.808 211.53L336.028 210.9H343.978C344.918 210.9 345.538 210.73 345.838 210.39C346.158 210.03 346.358 209.63 346.438 209.19H347.338V213H334.468Z" fill="#CA37B7"/>
<path d="M350.336 218.1L349.796 217.38C350.596 216.84 351.206 216.33 351.626 215.85C352.066 215.37 352.366 214.83 352.526 214.23C352.706 213.65 352.796 212.94 352.796 212.1L353.576 211.53C353.576 212.03 353.416 212.45 353.096 212.79C352.776 213.13 352.356 213.3 351.836 213.3C351.336 213.3 350.916 213.13 350.576 212.79C350.236 212.45 350.066 212.03 350.066 211.53C350.066 211.01 350.246 210.59 350.606 210.27C350.966 209.95 351.426 209.79 351.986 209.79C352.666 209.79 353.206 210.03 353.606 210.51C354.026 210.99 354.236 211.64 354.236 212.46C354.236 213.56 353.926 214.55 353.306 215.43C352.686 216.33 351.696 217.22 350.336 218.1Z" fill="black"/>
<path d="M365.68 213.3C364.78 213.3 364.07 213.16 363.55 212.88C363.05 212.58 362.69 212.21 362.47 211.77C362.27 211.31 362.17 210.85 362.17 210.39C362.17 209.71 362.41 209.03 362.89 208.35C363.39 207.65 364.2 206.95 365.32 206.25C366.46 205.55 367.99 204.86 369.91 204.18L370.66 203.91L370.75 200.94C370.77 200.2 370.54 199.59 370.06 199.11C369.58 198.61 368.91 198.36 368.05 198.36C367.37 198.36 366.77 198.59 366.25 199.05C365.73 199.51 365.36 200.23 365.14 201.21C365.1 201.41 364.89 201.6 364.51 201.78C364.15 201.94 363.67 202.02 363.07 202.02C362.73 202.02 362.47 201.98 362.29 201.9C362.11 201.82 362.06 201.64 362.14 201.36C362.46 200.58 362.99 199.87 363.73 199.23C364.47 198.59 365.31 198.08 366.25 197.7C367.19 197.3 368.12 197.1 369.04 197.1C370.34 197.1 371.4 197.41 372.22 198.03C373.06 198.65 373.46 199.52 373.42 200.64L373.12 209.79C373.1 210.57 373.29 211.07 373.69 211.29C374.11 211.51 374.9 211.66 376.06 211.74V212.43L375.01 212.7C374.37 212.9 373.86 213.03 373.48 213.09C373.12 213.17 372.84 213.21 372.64 213.21C372.1 213.21 371.69 213.09 371.41 212.85C371.15 212.61 370.96 212.33 370.84 212.01C370.74 211.69 370.67 211.43 370.63 211.23H370.39C369.53 212.07 368.72 212.63 367.96 212.91C367.22 213.17 366.46 213.3 365.68 213.3ZM367.39 211.32C368.11 211.32 368.7 211.21 369.16 210.99C369.64 210.75 370.07 210.5 370.45 210.24L370.63 204.93L370.39 205.02C368.95 205.56 367.85 206.09 367.09 206.61C366.33 207.13 365.81 207.63 365.53 208.11C365.27 208.59 365.14 209.03 365.14 209.43C365.14 210.69 365.89 211.32 367.39 211.32ZM376.748 213V212.1L377.648 211.95C378.268 211.85 378.668 211.69 378.848 211.47C379.048 211.23 379.148 210.8 379.148 210.18V201.24C379.148 200.56 378.988 200.1 378.668 199.86C378.368 199.6 377.748 199.41 376.808 199.29V198.54L381.338 197.22H381.758V199.62H382.028C382.528 198.9 383.138 198.31 383.858 197.85C384.598 197.39 385.438 197.16 386.378 197.16C387.098 197.16 387.638 197.31 387.998 197.61C388.378 197.91 388.568 198.3 388.568 198.78C388.568 199.1 388.438 199.39 388.178 199.65C387.938 199.91 387.648 200.09 387.308 200.19C386.968 200.27 386.638 200.22 386.318 200.04L384.878 199.2C384.638 199.06 384.348 199.08 384.008 199.26C383.668 199.44 383.328 199.68 382.988 199.98C382.668 200.26 382.398 200.54 382.178 200.82C381.958 201.08 381.848 201.23 381.848 201.27V210.18C381.848 210.8 381.948 211.23 382.148 211.47C382.348 211.69 382.748 211.84 383.348 211.92L384.848 212.1V213H376.748ZM394.755 220.71C393.055 220.71 391.685 220.37 390.645 219.69C389.625 219.01 389.115 218.13 389.115 217.05C389.115 216.63 389.225 216.15 389.445 215.61C389.685 215.09 390.145 214.49 390.825 213.81L392.475 212.16L393.615 212.34C392.935 213.12 392.405 213.76 392.025 214.26C391.665 214.78 391.485 215.32 391.485 215.88C391.485 216.78 391.915 217.46 392.775 217.92C393.655 218.4 394.855 218.64 396.375 218.64C398.055 218.64 399.365 218.32 400.305 217.68C401.265 217.04 401.745 216.2 401.745 215.16C401.745 214.5 401.525 214.02 401.085 213.72C400.645 213.42 399.845 213.23 398.685 213.15L392.895 212.73C391.975 212.65 391.225 212.42 390.645 212.04C390.085 211.64 389.805 211.13 389.805 210.51C389.805 209.99 389.985 209.56 390.345 209.22C390.705 208.88 391.165 208.45 391.725 207.93L392.655 207.03H393.945L393.045 208.05C392.765 208.37 392.575 208.61 392.475 208.77C392.395 208.91 392.355 209.06 392.355 209.22C392.355 209.48 392.455 209.69 392.655 209.85C392.875 210.01 393.225 210.11 393.705 210.15L399.435 210.63C401.995 210.83 403.275 211.98 403.275 214.08C403.275 215.32 402.885 216.44 402.105 217.44C401.345 218.44 400.325 219.23 399.045 219.81C397.765 220.41 396.335 220.71 394.755 220.71ZM395.325 207.72C394.205 207.72 393.205 207.5 392.325 207.06C391.445 206.6 390.755 205.97 390.255 205.17C389.755 204.37 389.505 203.46 389.505 202.44C389.505 201.4 389.755 200.48 390.255 199.68C390.775 198.88 391.485 198.25 392.385 197.79C393.285 197.33 394.305 197.1 395.445 197.1L396.675 197.19C398.035 197.43 399.135 198.01 399.975 198.93C400.835 199.85 401.265 200.98 401.265 202.32C401.265 203.36 401.005 204.29 400.485 205.11C399.985 205.91 399.285 206.55 398.385 207.03C397.485 207.49 396.465 207.72 395.325 207.72ZM395.625 206.55C396.585 206.55 397.325 206.23 397.845 205.59C398.365 204.93 398.625 203.99 398.625 202.77C398.625 201.85 398.485 201.06 398.205 200.4C397.925 199.72 397.525 199.2 397.005 198.84C396.485 198.46 395.865 198.27 395.145 198.27C394.185 198.27 393.445 198.6 392.925 199.26C392.405 199.9 392.145 200.83 392.145 202.05C392.145 202.97 392.285 203.77 392.565 204.45C392.845 205.11 393.245 205.63 393.765 206.01C394.305 206.37 394.925 206.55 395.625 206.55ZM395.445 197.55V197.1L402.885 195.66H403.455V197.55H395.445ZM410.228 213.3C409.008 213.3 407.968 213.14 407.108 212.82C406.248 212.48 405.598 212.09 405.158 211.65C404.718 211.19 404.498 210.79 404.498 210.45C404.498 210.13 404.638 209.87 404.918 209.67C405.218 209.47 405.558 209.37 405.938 209.37C406.318 209.35 406.638 209.47 406.898 209.73L408.518 211.23C408.798 211.49 409.068 211.71 409.328 211.89C409.608 212.07 409.998 212.16 410.498 212.16C411.738 212.16 412.708 211.72 413.408 210.84C414.128 209.96 414.488 208.88 414.488 207.6C414.488 205.86 413.918 204.6 412.778 203.82C411.638 203.04 410.148 202.83 408.308 203.19V202.23C410.188 201.81 411.608 201.16 412.568 200.28C413.528 199.4 414.008 198.32 414.008 197.04C414.008 195.88 413.668 194.97 412.988 194.31C412.328 193.63 411.448 193.29 410.348 193.29C409.308 193.29 408.418 193.6 407.678 194.22C406.958 194.84 406.398 195.72 405.998 196.86L404.798 196.5C405.258 194.9 406.028 193.7 407.108 192.9C408.208 192.1 409.538 191.7 411.098 191.7C412.218 191.7 413.208 191.91 414.068 192.33C414.928 192.73 415.598 193.3 416.078 194.04C416.578 194.76 416.828 195.61 416.828 196.59C416.828 197.79 416.418 198.83 415.598 199.71C414.778 200.57 413.508 201.29 411.788 201.87L411.848 201.57C413.508 201.69 414.828 202.23 415.808 203.19C416.788 204.13 417.278 205.4 417.278 207C417.278 208.16 416.978 209.22 416.378 210.18C415.798 211.12 414.978 211.88 413.918 212.46C412.858 213.02 411.628 213.3 410.228 213.3Z" fill="#CA3C37"/>
<path d="M420.366 218.1L419.826 217.38C420.626 216.84 421.236 216.33 421.656 215.85C422.096 215.37 422.396 214.83 422.556 214.23C422.736 213.65 422.826 212.94 422.826 212.1L423.606 211.53C423.606 212.03 423.446 212.45 423.126 212.79C422.806 213.13 422.386 213.3 421.866 213.3C421.366 213.3 420.946 213.13 420.606 212.79C420.266 212.45 420.096 212.03 420.096 211.53C420.096 211.01 420.276 210.59 420.636 210.27C420.996 209.95 421.456 209.79 422.016 209.79C422.696 209.79 423.236 210.03 423.636 210.51C424.056 210.99 424.266 211.64 424.266 212.46C424.266 213.56 423.956 214.55 423.336 215.43C422.716 216.33 421.726 217.22 420.366 218.1Z" fill="black"/>
<path d="M144.5 161C143.948 161 143.5 161.448 143.5 162C143.5 162.552 143.948 163 144.5 163V162V161ZM254.293 179.207C254.683 179.598 255.317 179.598 255.707 179.207L262.071 172.843C262.462 172.453 262.462 171.819 262.071 171.429C261.681 171.038 261.047 171.038 260.657 171.429L255 177.086L249.343 171.429C248.953 171.038 248.319 171.038 247.929 171.429C247.538 171.819 247.538 172.453 247.929 172.843L254.293 179.207ZM144.5 162V163H238.5V162V161H144.5V162ZM238.5 162V163C247.06 163 254 169.94 254 178.5H255H256C256 168.835 248.165 161 238.5 161V162Z" fill="#37CA3C"/>
<path d="M144.5 121C143.948 121 143.5 121.448 143.5 122C143.5 122.552 143.948 123 144.5 123V122V121ZM322.293 179.207C322.683 179.598 323.317 179.598 323.707 179.207L330.071 172.843C330.462 172.453 330.462 171.819 330.071 171.429C329.681 171.038 329.047 171.038 328.657 171.429L323 177.086L317.343 171.429C316.953 171.038 316.319 171.038 315.929 171.429C315.538 171.819 315.538 172.453 315.929 172.843L322.293 179.207ZM144.5 122V123H299V122V121H144.5V122ZM323 146H322V178.5H323H324V146H323ZM299 122V123C311.703 123 322 133.297 322 146H323H324C324 132.193 312.807 121 299 121V122Z" fill="#CA37B7"/>
<path d="M111.5 59C110.948 59 110.5 59.4477 110.5 60C110.5 60.5523 110.948 61 111.5 61V60V59ZM392.293 179.207C392.683 179.598 393.317 179.598 393.707 179.207L400.071 172.843C400.462 172.453 400.462 171.819 400.071 171.429C399.681 171.038 399.047 171.038 398.657 171.429L393 177.086L387.343 171.429C386.953 171.038 386.319 171.038 385.929 171.429C385.538 171.819 385.538 172.453 385.929 172.843L392.293 179.207ZM111.5 60V61H369V60V59H111.5V60ZM393 84H392V178.5H393H394V84H393ZM369 60V61C381.703 61 392 71.2975 392 84H393H394C394 70.1929 382.807 59 369 59V60Z" fill="#CA3C37"/>
<path d="M111.5 19C110.948 19 110.5 19.4477 110.5 20C110.5 20.5523 110.948 21 111.5 21V20V19ZM459.793 179.207C460.183 179.598 460.817 179.598 461.207 179.207L467.571 172.843C467.962 172.453 467.962 171.819 467.571 171.429C467.181 171.038 466.547 171.038 466.157 171.429L460.5 177.086L454.843 171.429C454.453 171.038 453.819 171.038 453.429 171.429C453.038 171.819 453.038 172.453 453.429 172.843L459.793 179.207ZM111.5 20V21H436.5V20V19H111.5V20ZM460.5 44H459.5V178.5H460.5H461.5V44H460.5ZM436.5 20V21C449.203 21 459.5 31.2974 459.5 44H460.5H461.5C461.5 30.1929 450.307 19 436.5 19V20Z" fill="#CABE37"/>
<path d="M503.59 203.85H500.89C500.89 201.97 500.72 200.25 500.38 198.69C500.06 197.11 499.57 195.64 498.91 194.28C498.27 192.9 497.46 191.6 496.48 190.38L497.02 189.9C498.52 191.26 499.75 192.64 500.71 194.04C501.69 195.44 502.41 196.94 502.87 198.54C503.35 200.12 503.59 201.89 503.59 203.85ZM497.02 217.8L496.48 217.32C497.46 216.08 498.27 214.78 498.91 213.42C499.57 212.06 500.06 210.59 500.38 209.01C500.72 207.43 500.89 205.71 500.89 203.85H503.59C503.59 205.79 503.35 207.56 502.87 209.16C502.41 210.76 501.69 212.25 500.71 213.63C499.75 215.03 498.52 216.42 497.02 217.8Z" fill="black"/>
</g>
<defs>
<clipPath id="clip0_38_8">
<rect width="505" height="222" fill="white"/>
</clipPath>
</defs>
</svg>
